#VRML V2.0 utf8
# 3D model generated by easyeda2kicad.py (https://github.com/uPesy/easyeda2kicad.py)

Shape{
    appearance Appearance {
        material  Material 	{
            diffuseColor 0.5098039215686274 0.25098039215686274 0.01568627450980392
            specularColor 0.03529411764705882 0.0196078431372549 0.0
            ambientIntensity 0.4303
            transparency 0.0
            shininess 0.5
        }
    }
    geometry IndexedFaceSet {
        ccw TRUE
        solid FALSE
        coord DEF co Coordinate {
            point [
                0.0284 0.0179 0.0551, 0.0322 0.0174 0.0551, 0.0199 -0.0117 0.0551, 0.072 -0.0177 0.0551, 0.0323 -0.0179 0.0551, 0.0518 -0.0177 0.0551, 0.0348 -0.0176 0.0551, 0.0387 -0.0163 0.0551, 0.0464 0.0113 0.0551, 0.0441 0.015 0.0551, 0.0667 0.0217 0.0551, 0.0236 0.0172 0.0551, 0.0192 -0.0113 0.0551, 0.0192 0.0153 0.0551, 0.0153 0.0787 0.0551, 0.0192 0.0206 0.0551, 0.0352 0.0164 0.0551, 0.0379 0.0145 0.0551, 0.0403 0.0119 0.0551, 0.0432 0.0016 0.0551, 0.0428 -0.0027 0.0551, 0.0417 -0.006 0.0551, 0.0329 -0.0134 0.0551, 0.0293 -0.0138 0.0551, 0.0358 -0.0124 0.0551, 0.0382 -0.0107 0.0551, 0.0401 -0.0088 0.0551, 0.024 -0.0132 0.0551, 0.0419 0.0089 0.0551, 0.043 0.0047 0.0551, 0.0418 -0.0143 0.0551, 0.0448 -0.0112 0.0551, 0.0518 -0.0133 0.0551, 0.0469 -0.0074 0.0551, 0.0667 -0.0133 0.0551, 0.0405 0.0184 0.0551, 0.0368 0.0206 0.0551, 0.0324 0.0219 0.0551, 0.0481 -0.0033 0.0551, 0.0484 0.0013 0.0551, 0.0479 0.0068 0.0551, 0.0284 0.0222 0.0551, 0.0237 0.0219 0.0551, 0.0192 -0.0156 0.0551, 0.0233 -0.0173 0.0551, 0.0153 -0.0179 0.0551, 0.0273 -0.0179 0.0551, 0.0153 -0.0787 0.0551, 0.0289 -0.0181 0.0551, 0.03 -0.0181 0.0551, 0.072 0.0217 0.0551, 0.113 0.0787 0.0551, 0.113 -0.0179 0.0551, 0.113 -0.0787 0.0551, -0.0097 -0.0177 0.0551, 0.0115 -0.0177 0.0551, 0.0115 0.0217 0.0551, -0.0817 -0.0177 0.0551, -0.0777 -0.0066 0.0551, -0.0614 -0.0066 0.0551, -0.0087 0.0217 0.0551, -0.1232 0.0787 0.0551, -0.0668 0.0217 0.0551, -0.0721 0.0217 0.0551, -0.1232 -0.0179 0.0551, -0.0471 -0.0069 0.0551, -0.0448 -0.0104 0.0551, -0.0519 -0.0177 0.0551, -0.0416 -0.0135 0.0551, -0.0375 -0.0159 0.0551, 0.0062 0.0174 0.0551, 0.0062 0.0044 0.0551, -0.0087 0.0174 0.0551, -0.0077 0.0044 0.0551, -0.0077 0.0001 0.0551, 0.0062 0.0001 0.0551, 0.0062 -0.0133 0.0551, -0.0097 -0.0133 0.0551, -0.0173 -0.0177 0.0551, -0.0173 0.0217 0.0551, -0.034 0.0211 0.0551, -0.0386 0.0195 0.0551, -0.043 0.0167 0.0551, -0.0284 0.0217 0.0551, -0.0433 0.0164 0.0551, -0.046 0.0133 0.0551, -0.0478 0.0099 0.0551, -0.0488 0.006 0.0551, -0.049 0.0025 0.0551, -0.0485 -0.0028 0.0551, -0.0577 -0.0177 0.0551, -0.0874 -0.0177 0.0551, -0.028 -0.0177 0.0551, -0.0329 -0.0172 0.0551, -0.1232 -0.0787 0.0551
            ]
        }
        coordIndex [
            0,1,2,-1,3,4,5,-1,5,4,6,-1,5,6,7,-1,8,9,10,-1,0,2,11,-1,11,2,12,-1,11,12,13,-1,13,12,14,-1,13,14,15,-1,1,16,2,-1,2,16,17,-1,2,17,18,-1,19,20,2,-1,2,20,21,-1,22,23,24,-1,24,23,25,-1,21,26,2,-1,2,26,25,-1,2,25,27,-1,27,25,23,-1,18,28,2,-1,2,28,29,-1,2,29,19,-1,7,30,5,-1,5,30,31,-1,5,31,32,-1,32,31,33,-1,32,33,34,-1,35,36,14,-1,14,36,37,-1,33,38,34,-1,34,38,39,-1,34,39,10,-1,10,39,40,-1,10,40,8,-1,37,41,14,-1,14,41,42,-1,14,42,15,-1,43,44,45,-1,45,44,46,-1,45,46,47,-1,46,48,47,-1,47,48,49,-1,47,49,4,-1,9,35,10,-1,10,35,14,-1,10,14,50,-1,50,14,51,-1,50,51,3,-1,3,51,52,-1,3,52,4,-1,4,52,53,-1,4,53,47,-1,54,55,45,-1,45,55,56,-1,57,58,59,-1,60,61,56,-1,56,61,14,-1,56,14,45,-1,45,14,12,-1,45,12,43,-1,62,63,61,-1,61,63,64,-1,65,66,67,-1,67,66,68,-1,67,68,69,-1,70,71,72,-1,72,71,73,-1,74,75,76,-1,76,77,74,-1,74,77,78,-1,74,78,73,-1,73,78,79,-1,73,79,72,-1,80,81,62,-1,62,81,82,-1,80,62,83,-1,83,62,61,-1,83,61,79,-1,79,61,60,-1,79,60,72,-1,82,84,62,-1,62,84,85,-1,62,85,86,-1,86,87,62,-1,62,87,88,-1,62,88,67,-1,67,88,89,-1,67,89,65,-1,59,90,57,-1,57,90,64,-1,57,64,91,-1,91,64,63,-1,77,54,78,-1,78,54,45,-1,78,45,92,-1,92,45,67,-1,92,67,93,-1,93,67,69,-1,90,67,64,-1,64,67,45,-1,64,45,94,-1,94,45,47,-1,
        ]
    }
}
Shape{
    appearance Appearance {
        material  Material 	{
            diffuseColor 0.08627450980392157 0.5019607843137255 0.7019607843137254
            specularColor 0.00784313725490196 0.03529411764705882 0.050980392156862744
            ambientIntensity 0.5716
            transparency 0.0
            shininess 0.5
        }
    }
    geometry IndexedFaceSet {
        ccw TRUE
        solid FALSE
        coord DEF co Coordinate {
            point [
                0.113 0.1142 0.1417, -0.1823 0.1181 0.1417, 0.172 0.1181 0.1417, -0.1232 -0.0984 0.1417, 0.113 -0.0984 0.1417, -0.1232 -0.1142 0.1417, 0.113 -0.1142 0.1417, -0.1823 -0.1142 0.1417, -0.1823 -0.1181 0.1417, -0.1864 -0.1136 0.1417, -0.1874 -0.1174 0.1417, -0.1902 -0.1121 0.1417, -0.1921 -0.1155 0.1417, -0.1934 -0.1096 0.1417, -0.1962 -0.1123 0.1417, -0.1959 -0.1063 0.1417, -0.1993 -0.1083 0.1417, -0.1975 -0.1025 0.1417, -0.2013 -0.1035 0.1417, -0.198 -0.0984 0.1417, -0.202 -0.0984 0.1417, -0.198 0.0984 0.1417, -0.202 0.0984 0.1417, -0.1975 0.1025 0.1417, -0.2013 0.1035 0.1417, -0.1959 0.1063 0.1417, -0.1993 0.1083 0.1417, -0.1934 0.1096 0.1417, -0.1962 0.1123 0.1417, -0.1902 0.1121 0.1417, -0.1921 0.1155 0.1417, -0.1864 0.1136 0.1417, -0.1874 0.1174 0.1417, -0.1823 0.1142 0.1417, -0.1232 0.1142 0.1417, -0.1232 0.0984 0.1417, 0.113 0.0984 0.1417, 0.172 -0.1181 0.1417, 0.172 -0.1142 0.1417, 0.1771 -0.1174 0.1417, 0.1761 -0.1136 0.1417, 0.1819 -0.1155 0.1417, 0.1799 -0.1121 0.1417, 0.186 -0.1123 0.1417, 0.1832 -0.1096 0.1417, 0.1891 -0.1083 0.1417, 0.1857 -0.1063 0.1417, 0.191 -0.1035 0.1417, 0.1872 -0.1025 0.1417, 0.1917 -0.0984 0.1417, 0.1878 -0.0984 0.1417, 0.1917 0.0984 0.1417, 0.1878 0.0984 0.1417, 0.191 0.1035 0.1417, 0.1872 0.1025 0.1417, 0.1891 0.1083 0.1417, 0.1857 0.1063 0.1417, 0.186 0.1123 0.1417, 0.1832 0.1096 0.1417, 0.1819 0.1155 0.1417, 0.1799 0.1121 0.1417, 0.1771 0.1174 0.1417, 0.1761 0.1136 0.1417, 0.172 0.1142 0.1417
            ]
        }
        coordIndex [
            0,1,2,-1,3,4,5,-1,5,4,6,-1,7,8,9,-1,9,8,10,-1,9,10,11,-1,11,10,12,-1,11,12,13,-1,13,12,14,-1,13,14,15,-1,15,14,16,-1,15,16,17,-1,17,16,18,-1,17,18,19,-1,19,18,20,-1,19,20,21,-1,21,20,22,-1,21,22,23,-1,23,22,24,-1,23,24,25,-1,25,24,26,-1,25,26,27,-1,27,26,28,-1,27,28,29,-1,29,28,30,-1,29,30,31,-1,31,30,32,-1,31,32,33,-1,33,32,1,-1,33,1,34,-1,34,1,0,-1,34,0,35,-1,35,0,36,-1,7,5,8,-1,8,5,6,-1,8,6,37,-1,37,6,38,-1,37,38,39,-1,39,38,40,-1,39,40,41,-1,41,40,42,-1,41,42,43,-1,43,42,44,-1,43,44,45,-1,45,44,46,-1,45,46,47,-1,47,46,48,-1,47,48,49,-1,49,48,50,-1,49,50,51,-1,51,50,52,-1,51,52,53,-1,53,52,54,-1,53,54,55,-1,55,54,56,-1,55,56,57,-1,57,56,58,-1,57,58,59,-1,59,58,60,-1,59,60,61,-1,61,60,62,-1,61,62,2,-1,2,62,63,-1,2,63,0,-1,
        ]
    }
}
Shape{
    appearance Appearance {
        material  Material 	{
            diffuseColor 0.7019607843137254 0.7019607843137254 0.7019607843137254
            specularColor 0.050980392156862744 0.050980392156862744 0.050980392156862744
            ambientIntensity 1.0
            transparency 0.0
            shininess 0.5
        }
    }
    geometry IndexedFaceSet {
        ccw TRUE
        solid FALSE
        coord DEF co Coordinate {
            point [
                0.113 -0.1142 0.0394, 0.113 -0.0978 0.0697, 0.113 -0.0958 0.065, 0.113 -0.1142 0.1417, 0.113 -0.0984 0.1417, 0.113 -0.0984 0.0748, 0.113 0.0838 0.0558, 0.113 0.0886 0.0578, 0.113 0.1142 0.0394, 0.113 0.0927 0.0609, 0.113 0.0958 0.065, 0.113 -0.0927 0.0609, 0.113 -0.0886 0.0578, 0.113 -0.0838 0.0558, 0.113 0.0984 0.1417, 0.113 0.1142 0.1417, 0.113 0.0984 0.0748, 0.113 0.0978 0.0697, 0.113 -0.0787 0.0551, 0.113 -0.0179 0.0551, 0.113 0.0787 0.0551, -0.1232 0.0978 0.0697, -0.1232 0.0958 0.065, -0.1232 0.1142 0.0394, -0.1232 -0.0838 0.0558, -0.1232 -0.0886 0.0578, -0.1232 -0.1142 0.0394, -0.1232 -0.0927 0.0609, -0.1232 -0.0958 0.065, -0.1232 -0.0984 0.1417, -0.1232 -0.1142 0.1417, -0.1232 -0.0984 0.0748, -0.1232 -0.0978 0.0697, -0.1232 0.1142 0.1417, -0.1232 0.0984 0.1417, -0.1232 0.0984 0.0748, -0.1232 0.0927 0.0609, -0.1232 0.0886 0.0578, -0.1232 0.0838 0.0558, -0.1232 0.0787 0.0551, -0.1232 -0.0179 0.0551, -0.1232 -0.0787 0.0551
            ]
        }
        coordIndex [
            0,1,2,-1,3,4,0,-1,0,4,5,-1,0,5,1,-1,6,7,8,-1,8,7,9,-1,8,9,10,-1,2,11,0,-1,0,11,12,-1,0,12,13,-1,14,15,16,-1,16,15,8,-1,16,8,17,-1,17,8,10,-1,13,18,0,-1,0,18,19,-1,0,19,8,-1,8,19,20,-1,8,20,6,-1,21,22,23,-1,24,25,26,-1,26,25,27,-1,26,27,28,-1,29,30,31,-1,31,30,26,-1,31,26,32,-1,32,26,28,-1,33,34,23,-1,23,34,35,-1,23,35,21,-1,22,36,23,-1,23,36,37,-1,23,37,38,-1,38,39,23,-1,23,39,40,-1,23,40,26,-1,26,40,41,-1,26,41,24,-1,
        ]
    }
}
Shape{
    appearance Appearance {
        material  Material 	{
            diffuseColor 0.08627450980392157 0.5019607843137255 0.7019607843137254
            specularColor 0.00784313725490196 0.03529411764705882 0.050980392156862744
            ambientIntensity 0.5716
            transparency 0.0
            shininess 0.5
        }
    }
    geometry IndexedFaceSet {
        ccw TRUE
        solid FALSE
        coord DEF co Coordinate {
            point [
                0.1917 0.0984 0.1772, 0.1917 -0.0984 0.1772, 0.1917 0.0984 0.1417, 0.1917 -0.0984 0.1417, 0.172 0.1181 0.1417, -0.1823 0.1181 0.1417, 0.172 0.1181 0.1772, -0.1823 0.1181 0.1772, -0.202 0.0984 0.1417, -0.202 -0.0984 0.1417, -0.202 0.0984 0.1772, -0.202 -0.0984 0.1772, 0.172 -0.1181 0.1772, -0.1823 -0.1181 0.1772, 0.172 -0.1181 0.1417, -0.1823 -0.1181 0.1417, 0.172 -0.0984 0.1969, 0.172 0.0984 0.1969, -0.1823 -0.0984 0.1969, -0.1823 0.0984 0.1969, -0.1867 0.1176 0.1772, -0.1874 0.1174 0.1417, -0.1874 0.1174 0.1772, -0.1908 0.1162 0.1772, -0.1921 0.1155 0.1417, -0.1921 0.1154 0.1772, -0.1946 0.1138 0.1772, -0.1962 0.1123 0.1417, -0.1961 0.1123 0.1772, -0.1977 0.1107 0.1772, -0.1993 0.1083 0.1417, -0.1993 0.1082 0.1772, -0.2 0.107 0.1772, -0.2013 0.1035 0.1417, -0.2012 0.1035 0.1772, -0.2015 0.1028 0.1772, 0.172 0.1176 0.1815, -0.1823 0.1176 0.1815, 0.172 0.1174 0.1822, -0.1823 0.1174 0.1822, 0.172 0.1162 0.1857, -0.1823 0.1162 0.1857, 0.172 0.1154 0.1869, -0.1823 0.1154 0.1869, 0.172 0.1138 0.1894, -0.1823 0.1138 0.1894, 0.172 0.1123 0.191, -0.1823 0.1123 0.191, 0.172 0.1107 0.1926, -0.1823 0.1107 0.1926, 0.172 0.1082 0.1941, -0.1823 0.1082 0.1941, 0.172 0.107 0.1949, -0.1823 0.107 0.1949, 0.172 0.1035 0.1961, -0.1823 0.1035 0.1961, 0.172 0.1028 0.1964, -0.1823 0.1028 0.1964, 0.1912 0.1028 0.1772, 0.191 0.1035 0.1417, 0.191 0.1035 0.1772, 0.1898 0.107 0.1772, 0.1891 0.1083 0.1417, 0.189 0.1082 0.1772, 0.1874 0.1107 0.1772, 0.186 0.1123 0.1417, 0.1859 0.1123 0.1772, 0.1843 0.1138 0.1772, 0.1819 0.1155 0.1417, 0.1818 0.1154 0.1772, 0.1806 0.1162 0.1772, 0.1771 0.1174 0.1417, 0.1771 0.1174 0.1772, 0.1764 0.1176 0.1772, -0.1906 0.1157 0.1815, -0.1943 0.1134 0.1815, -0.1973 0.1104 0.1815, -0.1996 0.1068 0.1815, -0.201 0.1027 0.1815, -0.1866 0.0994 0.1964, -0.1867 0.0984 0.1964, -0.1906 0.1003 0.1949, -0.1908 0.0984 0.1949, -0.1874 0.0984 0.1961, -0.1833 0.1027 0.1964, -0.1842 0.1068 0.1949, -0.185 0.1104 0.1926, -0.1973 0.1019 0.1894, -0.1961 0.0984 0.191, -0.1943 0.1012 0.1926, -0.1946 0.0984 0.1926, -0.1921 0.0984 0.1941, -0.1857 0.1134 0.1894, -0.1996 0.1024 0.1857, -0.1993 0.0984 0.1869, -0.1977 0.0984 0.1894, -0.1862 0.1157 0.1857, -0.2012 0.0984 0.1822, -0.2 0.0984 0.1857, -0.2015 0.0984 0.1815, -0.1983 0.1061 0.1857, -0.1962 0.1051 0.1894, -0.1934 0.1038 0.1926, -0.19 0.1021 0.1949, -0.1862 0.1003 0.1964, -0.1962 0.1095 0.1857, -0.1943 0.108 0.1894, -0.1919 0.1061 0.1926, -0.189 0.1038 0.1949, -0.1857 0.1012 0.1964, -0.1934 0.1123 0.1857, -0.1919 0.1105 0.1894, -0.1899 0.108 0.1926, -0.1876 0.1051 0.1949, -0.185 0.1019 0.1964, -0.19 0.1144 0.1857, -0.189 0.1123 0.1894, -0.1876 0.1095 0.1926, -0.186 0.1061 0.1949, -0.1842 0.1024 0.1964, -0.1866 0.1171 0.1815, 0.1893 0.1068 0.1815, 0.187 0.1104 0.1815, 0.184 0.1134 0.1815, 0.1804 0.1157 0.1815, 0.1763 0.1171 0.1815, 0.173 0.1027 0.1964, 0.1739 0.1068 0.1949, 0.1764 0.0984 0.1964, 0.1763 0.0994 0.1964, 0.1771 0.0984 0.1961, 0.1804 0.1003 0.1949, 0.1806 0.0984 0.1949, 0.1818 0.0984 0.1941, 0.184 0.1012 0.1926, 0.1755 0.1134 0.1894, 0.1748 0.1104 0.1926, 0.1843 0.0984 0.1926, 0.1859 0.0984 0.191, 0.187 0.1019 0.1894, 0.176 0.1157 0.1857, 0.1874 0.0984 0.1894, 0.189 0.0984 0.1869, 0.1893 0.1024 0.1857, 0.1797 0.1144 0.1857, 0.1787 0.1123 0.1894, 0.1774 0.1095 0.1926, 0.1757 0.1061 0.1949, 0.1739 0.1024 0.1964, 0.1831 0.1123 0.1857, 0.1816 0.1105 0.1894, 0.1797 0.108 0.1926, 0.1774 0.1051 0.1949, 0.1748 0.1019 0.1964, 0.1859 0.1095 0.1857, 0.1841 0.108 0.1894, 0.1816 0.1061 0.1926, 0.1787 0.1038 0.1949, 0.1755 0.1012 0.1964, 0.188 0.1061 0.1857, 0.1859 0.1051 0.1894, 0.1831 0.1038 0.1926, 0.1797 0.1021 0.1949, 0.176 0.1003 0.1964, 0.1907 0.1027 0.1815, 0.1898 0.0984 0.1857, 0.191 0.0984 0.1822, 0.1912 0.0984 0.1815, -0.2015 -0.1028 0.1772, -0.2013 -0.1035 0.1417, -0.2012 -0.1035 0.1772, -0.2 -0.107 0.1772, -0.1993 -0.1083 0.1417, -0.1993 -0.1082 0.1772, -0.1977 -0.1107 0.1772, -0.1962 -0.1123 0.1417, -0.1961 -0.1123 0.1772, -0.1946 -0.1138 0.1772, -0.1921 -0.1155 0.1417, -0.1921 -0.1154 0.1772, -0.1908 -0.1162 0.1772, -0.1874 -0.1174 0.1417, -0.1874 -0.1174 0.1772, -0.1867 -0.1176 0.1772, -0.2015 -0.0984 0.1815, -0.2012 -0.0984 0.1822, -0.2 -0.0984 0.1857, -0.1993 -0.0984 0.1869, -0.1977 -0.0984 0.1894, -0.1961 -0.0984 0.191, -0.1946 -0.0984 0.1926, -0.1921 -0.0984 0.1941, -0.1908 -0.0984 0.1949, -0.1874 -0.0984 0.1961, -0.1867 -0.0984 0.1964, 0.1912 -0.0984 0.1815, 0.191 -0.0984 0.1822, 0.1898 -0.0984 0.1857, 0.189 -0.0984 0.1869, 0.1874 -0.0984 0.1894, 0.1859 -0.0984 0.191, 0.1843 -0.0984 0.1926, 0.1818 -0.0984 0.1941, 0.1806 -0.0984 0.1949, 0.1771 -0.0984 0.1961, 0.1764 -0.0984 0.1964, 0.1764 -0.1176 0.1772, 0.1771 -0.1174 0.1417, 0.1771 -0.1174 0.1772, 0.1806 -0.1162 0.1772, 0.1819 -0.1155 0.1417, 0.1818 -0.1154 0.1772, 0.1843 -0.1138 0.1772, 0.186 -0.1123 0.1417, 0.1859 -0.1123 0.1772, 0.1874 -0.1107 0.1772, 0.1891 -0.1083 0.1417, 0.189 -0.1082 0.1772, 0.1898 -0.107 0.1772, 0.191 -0.1035 0.1417, 0.191 -0.1035 0.1772, 0.1912 -0.1028 0.1772, -0.1996 -0.1068 0.1815, -0.1973 -0.1104 0.1815, -0.1943 -0.1134 0.1815, -0.1906 -0.1157 0.1815, -0.1866 -0.1171 0.1815, -0.1833 -0.1027 0.1964, -0.1823 -0.1028 0.1964, -0.1842 -0.1068 0.1949, -0.1823 -0.107 0.1949, -0.1823 -0.1035 0.1961, -0.1866 -0.0994 0.1964, -0.1906 -0.1003 0.1949, -0.1943 -0.1012 0.1926, -0.1857 -0.1134 0.1894, -0.1823 -0.1123 0.191, -0.185 -0.1104 0.1926, -0.1823 -0.1107 0.1926, -0.1823 -0.1082 0.1941, -0.1973 -0.1019 0.1894, -0.1862 -0.1157 0.1857, -0.1823 -0.1154 0.1869, -0.1823 -0.1138 0.1894, -0.1996 -0.1024 0.1857, -0.1823 -0.1174 0.1822, -0.1823 -0.1162 0.1857, -0.1823 -0.1176 0.1815, -0.19 -0.1144 0.1857, -0.189 -0.1123 0.1894, -0.1876 -0.1095 0.1926, -0.186 -0.1061 0.1949, -0.1842 -0.1024 0.1964, -0.1934 -0.1123 0.1857, -0.1919 -0.1105 0.1894, -0.1899 -0.108 0.1926, -0.1876 -0.1051 0.1949, -0.185 -0.1019 0.1964, -0.1962 -0.1095 0.1857, -0.1943 -0.108 0.1894, -0.1919 -0.1061 0.1926, -0.189 -0.1038 0.1949, -0.1857 -0.1012 0.1964, -0.1983 -0.1061 0.1857, -0.1962 -0.1051 0.1894, -0.1934 -0.1038 0.1926, -0.19 -0.1021 0.1949, -0.1862 -0.1003 0.1964, -0.201 -0.1027 0.1815, 0.1804 -0.1157 0.1815, 0.184 -0.1134 0.1815, 0.187 -0.1104 0.1815, 0.1893 -0.1068 0.1815, 0.1907 -0.1027 0.1815, 0.1763 -0.0994 0.1964, 0.1804 -0.1003 0.1949, 0.172 -0.1028 0.1964, 0.173 -0.1027 0.1964, 0.172 -0.1035 0.1961, 0.1739 -0.1068 0.1949, 0.172 -0.107 0.1949, 0.172 -0.1082 0.1941, 0.1748 -0.1104 0.1926, 0.187 -0.1019 0.1894, 0.184 -0.1012 0.1926, 0.172 -0.1107 0.1926, 0.172 -0.1123 0.191, 0.1755 -0.1134 0.1894, 0.1893 -0.1024 0.1857, 0.172 -0.1138 0.1894, 0.172 -0.1154 0.1869, 0.176 -0.1157 0.1857, 0.188 -0.1061 0.1857, 0.1859 -0.1051 0.1894, 0.1831 -0.1038 0.1926, 0.1797 -0.1021 0.1949, 0.176 -0.1003 0.1964, 0.1859 -0.1095 0.1857, 0.1841 -0.108 0.1894, 0.1816 -0.1061 0.1926, 0.1787 -0.1038 0.1949, 0.1755 -0.1012 0.1964, 0.1831 -0.1123 0.1857, 0.1816 -0.1105 0.1894, 0.1797 -0.108 0.1926, 0.1774 -0.1051 0.1949, 0.1748 -0.1019 0.1964, 0.1797 -0.1144 0.1857, 0.1787 -0.1123 0.1894, 0.1774 -0.1095 0.1926, 0.1757 -0.1061 0.1949, 0.1739 -0.1024 0.1964, 0.1763 -0.1171 0.1815, 0.172 -0.1162 0.1857, 0.172 -0.1174 0.1822, 0.172 -0.1176 0.1815
            ]
        }
        coordIndex [
            0,1,2,-1,2,1,3,-1,4,5,6,-1,6,5,7,-1,8,9,10,-1,10,9,11,-1,12,13,14,-1,14,13,15,-1,16,17,18,-1,18,17,19,-1,7,5,20,-1,20,5,21,-1,20,21,22,-1,22,21,23,-1,23,21,24,-1,23,24,25,-1,25,24,26,-1,26,24,27,-1,26,27,28,-1,28,27,29,-1,29,27,30,-1,29,30,31,-1,31,30,32,-1,32,30,33,-1,32,33,34,-1,34,33,35,-1,35,33,8,-1,35,8,10,-1,6,7,36,-1,36,7,37,-1,36,37,38,-1,38,37,39,-1,38,39,40,-1,40,39,41,-1,40,41,42,-1,42,41,43,-1,42,43,44,-1,44,43,45,-1,44,45,46,-1,46,45,47,-1,46,47,48,-1,48,47,49,-1,48,49,50,-1,50,49,51,-1,50,51,52,-1,52,51,53,-1,52,53,54,-1,54,53,55,-1,54,55,56,-1,56,55,57,-1,56,57,17,-1,17,57,19,-1,0,2,58,-1,58,2,59,-1,58,59,60,-1,60,59,61,-1,61,59,62,-1,61,62,63,-1,63,62,64,-1,64,62,65,-1,64,65,66,-1,66,65,67,-1,67,65,68,-1,67,68,69,-1,69,68,70,-1,70,68,71,-1,70,71,72,-1,72,71,73,-1,73,71,4,-1,73,4,6,-1,22,23,74,-1,25,26,75,-1,28,29,76,-1,31,32,77,-1,34,35,78,-1,19,79,80,-1,81,82,79,-1,79,82,83,-1,79,83,80,-1,19,57,84,-1,84,57,55,-1,84,55,85,-1,55,53,85,-1,85,53,51,-1,85,51,86,-1,87,88,89,-1,89,88,90,-1,89,90,81,-1,81,90,91,-1,81,91,82,-1,51,49,86,-1,86,49,47,-1,86,47,92,-1,93,94,87,-1,87,94,95,-1,87,95,88,-1,47,45,92,-1,92,45,43,-1,92,43,96,-1,78,97,93,-1,93,97,98,-1,93,98,94,-1,35,10,78,-1,78,10,99,-1,78,99,97,-1,32,34,77,-1,77,34,78,-1,77,78,100,-1,100,78,93,-1,100,93,101,-1,101,93,87,-1,101,87,102,-1,102,87,89,-1,102,89,103,-1,103,89,81,-1,103,81,104,-1,104,81,79,-1,104,79,19,-1,29,31,76,-1,76,31,77,-1,76,77,105,-1,105,77,100,-1,105,100,106,-1,106,100,101,-1,106,101,107,-1,107,101,102,-1,107,102,108,-1,108,102,103,-1,108,103,109,-1,109,103,104,-1,109,104,19,-1,26,28,75,-1,75,28,76,-1,75,76,110,-1,110,76,105,-1,110,105,111,-1,111,105,106,-1,111,106,112,-1,112,106,107,-1,112,107,113,-1,113,107,108,-1,113,108,114,-1,114,108,109,-1,114,109,19,-1,23,25,74,-1,74,25,75,-1,74,75,115,-1,115,75,110,-1,115,110,116,-1,116,110,111,-1,116,111,117,-1,117,111,112,-1,117,112,118,-1,118,112,113,-1,118,113,119,-1,119,113,114,-1,119,114,19,-1,20,22,120,-1,120,22,74,-1,120,74,96,-1,96,74,115,-1,96,115,92,-1,92,115,116,-1,92,116,86,-1,86,116,117,-1,86,117,85,-1,85,117,118,-1,85,118,84,-1,84,118,119,-1,84,119,19,-1,43,41,96,-1,96,41,39,-1,96,39,120,-1,120,39,37,-1,120,37,20,-1,20,37,7,-1,60,61,121,-1,63,64,122,-1,66,67,123,-1,69,70,124,-1,72,73,125,-1,17,126,56,-1,127,52,126,-1,126,52,54,-1,126,54,56,-1,17,128,129,-1,129,128,130,-1,129,130,131,-1,130,132,131,-1,131,132,133,-1,131,133,134,-1,135,46,136,-1,136,46,48,-1,136,48,127,-1,127,48,50,-1,127,50,52,-1,133,137,134,-1,134,137,138,-1,134,138,139,-1,140,42,135,-1,135,42,44,-1,135,44,46,-1,138,141,139,-1,139,141,142,-1,139,142,143,-1,125,38,140,-1,140,38,40,-1,140,40,42,-1,73,6,125,-1,125,6,36,-1,125,36,38,-1,70,72,124,-1,124,72,125,-1,124,125,144,-1,144,125,140,-1,144,140,145,-1,145,140,135,-1,145,135,146,-1,146,135,136,-1,146,136,147,-1,147,136,127,-1,147,127,148,-1,148,127,126,-1,148,126,17,-1,67,69,123,-1,123,69,124,-1,123,124,149,-1,149,124,144,-1,149,144,150,-1,150,144,145,-1,150,145,151,-1,151,145,146,-1,151,146,152,-1,152,146,147,-1,152,147,153,-1,153,147,148,-1,153,148,17,-1,64,66,122,-1,122,66,123,-1,122,123,154,-1,154,123,149,-1,154,149,155,-1,155,149,150,-1,155,150,156,-1,156,150,151,-1,156,151,157,-1,157,151,152,-1,157,152,158,-1,158,152,153,-1,158,153,17,-1,61,63,121,-1,121,63,122,-1,121,122,159,-1,159,122,154,-1,159,154,160,-1,160,154,155,-1,160,155,161,-1,161,155,156,-1,161,156,162,-1,162,156,157,-1,162,157,163,-1,163,157,158,-1,163,158,17,-1,58,60,164,-1,164,60,121,-1,164,121,143,-1,143,121,159,-1,143,159,139,-1,139,159,160,-1,139,160,134,-1,134,160,161,-1,134,161,131,-1,131,161,162,-1,131,162,129,-1,129,162,163,-1,129,163,17,-1,142,165,143,-1,143,165,166,-1,143,166,164,-1,164,166,167,-1,164,167,58,-1,58,167,0,-1,11,9,168,-1,168,9,169,-1,168,169,170,-1,170,169,171,-1,171,169,172,-1,171,172,173,-1,173,172,174,-1,174,172,175,-1,174,175,176,-1,176,175,177,-1,177,175,178,-1,177,178,179,-1,179,178,180,-1,180,178,181,-1,180,181,182,-1,182,181,183,-1,183,181,15,-1,183,15,13,-1,10,11,99,-1,99,11,184,-1,99,184,97,-1,97,184,185,-1,97,185,98,-1,98,185,186,-1,98,186,94,-1,94,186,187,-1,94,187,95,-1,95,187,188,-1,95,188,88,-1,88,188,189,-1,88,189,90,-1,90,189,190,-1,90,190,91,-1,91,190,191,-1,91,191,82,-1,82,191,192,-1,82,192,83,-1,83,192,193,-1,83,193,80,-1,80,193,194,-1,80,194,19,-1,19,194,18,-1,1,0,195,-1,195,0,167,-1,195,167,196,-1,196,167,166,-1,196,166,197,-1,197,166,165,-1,197,165,198,-1,198,165,142,-1,198,142,199,-1,199,142,141,-1,199,141,200,-1,200,141,138,-1,200,138,201,-1,201,138,137,-1,201,137,202,-1,202,137,133,-1,202,133,203,-1,203,133,132,-1,203,132,204,-1,204,132,130,-1,204,130,205,-1,205,130,128,-1,205,128,16,-1,16,128,17,-1,12,14,206,-1,206,14,207,-1,206,207,208,-1,208,207,209,-1,209,207,210,-1,209,210,211,-1,211,210,212,-1,212,210,213,-1,212,213,214,-1,214,213,215,-1,215,213,216,-1,215,216,217,-1,217,216,218,-1,218,216,219,-1,218,219,220,-1,220,219,221,-1,221,219,3,-1,221,3,1,-1,170,171,222,-1,173,174,223,-1,176,177,224,-1,179,180,225,-1,182,183,226,-1,18,227,228,-1,229,230,227,-1,227,230,231,-1,227,231,228,-1,18,194,232,-1,232,194,193,-1,232,193,233,-1,193,192,233,-1,233,192,191,-1,233,191,234,-1,235,236,237,-1,237,236,238,-1,237,238,229,-1,229,238,239,-1,229,239,230,-1,191,190,234,-1,234,190,189,-1,234,189,240,-1,241,242,235,-1,235,242,243,-1,235,243,236,-1,189,188,240,-1,240,188,187,-1,240,187,244,-1,226,245,241,-1,241,245,246,-1,241,246,242,-1,183,13,226,-1,226,13,247,-1,226,247,245,-1,180,182,225,-1,225,182,226,-1,225,226,248,-1,248,226,241,-1,248,241,249,-1,249,241,235,-1,249,235,250,-1,250,235,237,-1,250,237,251,-1,251,237,229,-1,251,229,252,-1,252,229,227,-1,252,227,18,-1,177,179,224,-1,224,179,225,-1,224,225,253,-1,253,225,248,-1,253,248,254,-1,254,248,249,-1,254,249,255,-1,255,249,250,-1,255,250,256,-1,256,250,251,-1,256,251,257,-1,257,251,252,-1,257,252,18,-1,174,176,223,-1,223,176,224,-1,223,224,258,-1,258,224,253,-1,258,253,259,-1,259,253,254,-1,259,254,260,-1,260,254,255,-1,260,255,261,-1,261,255,256,-1,261,256,262,-1,262,256,257,-1,262,257,18,-1,171,173,222,-1,222,173,223,-1,222,223,263,-1,263,223,258,-1,263,258,264,-1,264,258,259,-1,264,259,265,-1,265,259,260,-1,265,260,266,-1,266,260,261,-1,266,261,267,-1,267,261,262,-1,267,262,18,-1,168,170,268,-1,268,170,222,-1,268,222,244,-1,244,222,263,-1,244,263,240,-1,240,263,264,-1,240,264,234,-1,234,264,265,-1,234,265,233,-1,233,265,266,-1,233,266,232,-1,232,266,267,-1,232,267,18,-1,187,186,244,-1,244,186,185,-1,244,185,268,-1,268,185,184,-1,268,184,168,-1,168,184,11,-1,208,209,269,-1,211,212,270,-1,214,215,271,-1,217,218,272,-1,220,221,273,-1,16,274,205,-1,275,203,274,-1,274,203,204,-1,274,204,205,-1,16,276,277,-1,277,276,278,-1,277,278,279,-1,278,280,279,-1,279,280,281,-1,279,281,282,-1,283,200,284,-1,284,200,201,-1,284,201,275,-1,275,201,202,-1,275,202,203,-1,281,285,282,-1,282,285,286,-1,282,286,287,-1,288,198,283,-1,283,198,199,-1,283,199,200,-1,286,289,287,-1,287,289,290,-1,287,290,291,-1,273,196,288,-1,288,196,197,-1,288,197,198,-1,221,1,273,-1,273,1,195,-1,273,195,196,-1,218,220,272,-1,272,220,273,-1,272,273,292,-1,292,273,288,-1,292,288,293,-1,293,288,283,-1,293,283,294,-1,294,283,284,-1,294,284,295,-1,295,284,275,-1,295,275,296,-1,296,275,274,-1,296,274,16,-1,215,217,271,-1,271,217,272,-1,271,272,297,-1,297,272,292,-1,297,292,298,-1,298,292,293,-1,298,293,299,-1,299,293,294,-1,299,294,300,-1,300,294,295,-1,300,295,301,-1,301,295,296,-1,301,296,16,-1,212,214,270,-1,270,214,271,-1,270,271,302,-1,302,271,297,-1,302,297,303,-1,303,297,298,-1,303,298,304,-1,304,298,299,-1,304,299,305,-1,305,299,300,-1,305,300,306,-1,306,300,301,-1,306,301,16,-1,209,211,269,-1,269,211,270,-1,269,270,307,-1,307,270,302,-1,307,302,308,-1,308,302,303,-1,308,303,309,-1,309,303,304,-1,309,304,310,-1,310,304,305,-1,310,305,311,-1,311,305,306,-1,311,306,16,-1,206,208,312,-1,312,208,269,-1,312,269,291,-1,291,269,307,-1,291,307,287,-1,287,307,308,-1,287,308,282,-1,282,308,309,-1,282,309,279,-1,279,309,310,-1,279,310,277,-1,277,310,311,-1,277,311,16,-1,290,313,291,-1,291,313,314,-1,291,314,312,-1,312,314,315,-1,312,315,206,-1,206,315,12,-1,13,12,247,-1,247,12,315,-1,247,315,245,-1,245,315,314,-1,245,314,246,-1,246,314,313,-1,246,313,242,-1,242,313,290,-1,242,290,243,-1,243,290,289,-1,243,289,236,-1,236,289,286,-1,236,286,238,-1,238,286,285,-1,238,285,239,-1,239,285,281,-1,239,281,230,-1,230,281,280,-1,230,280,231,-1,231,280,278,-1,231,278,228,-1,228,278,276,-1,228,276,18,-1,18,276,16,-1,
        ]
    }
}
Shape{
    appearance Appearance {
        material  Material 	{
            diffuseColor 0.7019607843137254 0.7019607843137254 0.7019607843137254
            specularColor 0.050980392156862744 0.050980392156862744 0.050980392156862744
            ambientIntensity 1.0
            transparency 0.0
            shininess 0.5
        }
    }
    geometry IndexedFaceSet {
        ccw TRUE
        solid FALSE
        coord DEF co Coordinate {
            point [
                0.1878 -0.0984 0.0394, 0.1878 0.0984 0.0394, 0.1878 -0.0984 0.1417, 0.1878 0.0984 0.1417, 0.1872 -0.1025 0.1417, 0.1872 -0.1025 0.0394, 0.1857 -0.1063 0.1417, 0.1857 -0.1063 0.0394, 0.1832 -0.1096 0.1417, 0.1832 -0.1096 0.0394, 0.1799 -0.1121 0.1417, 0.1799 -0.1121 0.0394, 0.1761 -0.1136 0.1417, 0.1761 -0.1136 0.0394, 0.172 -0.1142 0.1417, 0.172 -0.1142 0.0394, 0.113 -0.1142 0.0394, 0.113 -0.1142 0.1417, 0.172 0.1142 0.0394, 0.113 0.1142 0.0394, 0.172 0.1142 0.1417, 0.113 0.1142 0.1417, 0.1761 0.1136 0.1417, 0.1761 0.1136 0.0394, 0.1799 0.1121 0.1417, 0.1799 0.1121 0.0394, 0.1832 0.1096 0.1417, 0.1832 0.1096 0.0394, 0.1857 0.1063 0.1417, 0.1857 0.1063 0.0394, 0.1872 0.1025 0.1417, 0.1872 0.1025 0.0394, -0.198 0.0984 0.0394, -0.198 -0.0984 0.0394, -0.198 0.0984 0.1417, -0.198 -0.0984 0.1417, -0.1975 0.1025 0.1417, -0.1975 0.1025 0.0394, -0.1959 0.1063 0.1417, -0.1959 0.1063 0.0394, -0.1934 0.1096 0.1417, -0.1934 0.1096 0.0394, -0.1902 0.1121 0.1417, -0.1902 0.1121 0.0394, -0.1864 0.1136 0.1417, -0.1864 0.1136 0.0394, -0.1823 0.1142 0.1417, -0.1823 0.1142 0.0394, -0.1232 0.1142 0.0394, -0.1232 0.1142 0.1417, -0.1823 -0.1142 0.0394, -0.1232 -0.1142 0.0394, -0.1823 -0.1142 0.1417, -0.1232 -0.1142 0.1417, -0.1864 -0.1136 0.1417, -0.1864 -0.1136 0.0394, -0.1902 -0.1121 0.1417, -0.1902 -0.1121 0.0394, -0.1934 -0.1096 0.1417, -0.1934 -0.1096 0.0394, -0.1959 -0.1063 0.1417, -0.1959 -0.1063 0.0394, -0.1975 -0.1025 0.1417, -0.1975 -0.1025 0.0394
            ]
        }
        coordIndex [
            0,1,2,-1,2,1,3,-1,0,2,4,-1,0,4,5,-1,5,4,6,-1,5,6,7,-1,7,6,8,-1,7,8,9,-1,9,8,10,-1,9,10,11,-1,11,10,12,-1,11,12,13,-1,13,12,14,-1,13,14,15,-1,16,15,17,-1,17,15,14,-1,18,19,20,-1,20,19,21,-1,18,20,22,-1,18,22,23,-1,23,22,24,-1,23,24,25,-1,25,24,26,-1,25,26,27,-1,27,26,28,-1,27,28,29,-1,29,28,30,-1,29,30,31,-1,31,30,3,-1,31,3,1,-1,32,33,34,-1,34,33,35,-1,32,34,36,-1,32,36,37,-1,37,36,38,-1,37,38,39,-1,39,38,40,-1,39,40,41,-1,41,40,42,-1,41,42,43,-1,43,42,44,-1,43,44,45,-1,45,44,46,-1,45,46,47,-1,48,47,49,-1,49,47,46,-1,50,51,52,-1,52,51,53,-1,50,52,54,-1,50,54,55,-1,55,54,56,-1,55,56,57,-1,57,56,58,-1,57,58,59,-1,59,58,60,-1,59,60,61,-1,61,60,62,-1,61,62,63,-1,63,62,35,-1,63,35,33,-1,
        ]
    }
}
Shape{
    appearance Appearance {
        material  Material 	{
            diffuseColor 0.6666666666666666 0.6666666666666666 0.6666666666666666
            specularColor 0.4666666666666667 0.4666666666666667 0.4666666666666667
            ambientIntensity 0.6667
            transparency 0.0
            shininess 0.5
        }
    }
    geometry IndexedFaceSet {
        ccw TRUE
        solid FALSE
        coord DEF co Coordinate {
            point [
                0.172 0.1181 0.0079, 0.172 0.1181 0.0394, 0.1764 0.1176 0.0079, 0.1771 0.1174 0.0394, 0.1771 0.1174 0.0079, 0.1806 0.1162 0.0079, 0.1819 0.1155 0.0394, 0.1818 0.1154 0.0079, 0.1843 0.1138 0.0079, 0.186 0.1123 0.0394, 0.1859 0.1123 0.0079, 0.1874 0.1107 0.0079, 0.1891 0.1083 0.0394, 0.189 0.1082 0.0079, 0.1898 0.107 0.0079, 0.191 0.1035 0.0394, 0.191 0.1035 0.0079, 0.1912 0.1028 0.0079, 0.1917 0.0984 0.0394, 0.1917 0.0984 0.0079, 0.1917 -0.0984 0.0079, 0.1917 -0.0984 0.0394, 0.1912 -0.1028 0.0394, 0.1912 -0.1028 0.0079, 0.1898 -0.107 0.0394, 0.1898 -0.107 0.0079, 0.1874 -0.1107 0.0394, 0.1874 -0.1107 0.0079, 0.1843 -0.1138 0.0394, 0.1843 -0.1138 0.0079, 0.1806 -0.1162 0.0394, 0.1806 -0.1162 0.0079, 0.1764 -0.1176 0.0394, 0.1764 -0.1176 0.0079, 0.172 -0.1181 0.0394, 0.172 -0.1181 0.0079, 0.1169 -0.1181 0.0079, 0.1169 -0.1181 0.0394, 0.109 -0.1102 0.0079, 0.109 -0.1102 0.0394, 0.109 0.1102 0.0079, 0.109 0.1102 0.0394, 0.1169 0.1181 0.0079, 0.1169 0.1181 0.0394, 0.1838 0.0984 0.0, 0.1838 -0.0984 0.0, 0.172 -0.1102 0.0, 0.1772 0.1091 0.0, 0.1794 0.1077 0.0, 0.1813 0.1058 0.0, 0.1836 0.1011 0.0, 0.172 0.1102 0.0, 0.1169 0.1102 0.0, 0.1169 -0.1102 0.0, 0.1747 0.1099 0.0, 0.1772 -0.1091 0.0, 0.1827 -0.1036 0.0, 0.1794 -0.1077 0.0, 0.1813 -0.1058 0.0, 0.1836 -0.1011 0.0, 0.1747 -0.1099 0.0, 0.1827 0.1036 0.0, 0.113 -0.1142 0.0394, 0.113 0.1142 0.0394, 0.1093 0.1123 0.0394, 0.1101 0.1142 0.0394, 0.1093 -0.1123 0.0394, 0.1101 -0.1142 0.0394, 0.1113 -0.1158 0.0394, 0.172 -0.1142 0.0394, 0.1761 -0.1136 0.0394, 0.1799 -0.1121 0.0394, 0.1832 -0.1096 0.0394, 0.113 -0.1171 0.0394, 0.1149 -0.1178 0.0394, 0.1857 -0.1063 0.0394, 0.1872 -0.1025 0.0394, 0.1878 -0.0984 0.0394, 0.1878 0.0984 0.0394, 0.1872 0.1025 0.0394, 0.1857 0.1063 0.0394, 0.1832 0.1096 0.0394, 0.1799 0.1121 0.0394, 0.1761 0.1136 0.0394, 0.172 0.1142 0.0394, 0.1149 0.1178 0.0394, 0.113 0.1171 0.0394, 0.1113 0.1158 0.0394, -0.202 0.0984 0.0079, -0.202 0.0984 0.0394, -0.2015 0.1028 0.0079, -0.2013 0.1035 0.0394, -0.2012 0.1035 0.0079, -0.2 0.107 0.0079, -0.1993 0.1083 0.0394, -0.1993 0.1082 0.0079, -0.1977 0.1107 0.0079, -0.1962 0.1123 0.0394, -0.1961 0.1123 0.0079, -0.1946 0.1138 0.0079, -0.1921 0.1155 0.0394, -0.1921 0.1154 0.0079, -0.1908 0.1162 0.0079, -0.1874 0.1174 0.0394, -0.1874 0.1174 0.0079, -0.1867 0.1176 0.0079, -0.1823 0.1181 0.0394, -0.1823 0.1181 0.0079, -0.1272 0.1181 0.0079, -0.1272 0.1181 0.0394, -0.1193 0.1102 0.0079, -0.1193 0.1102 0.0394, -0.1193 -0.1102 0.0079, -0.1193 -0.1102 0.0394, -0.1272 -0.1181 0.0079, -0.1272 -0.1181 0.0394, -0.1823 -0.1181 0.0079, -0.1823 -0.1181 0.0394, -0.1867 -0.1176 0.0394, -0.1867 -0.1176 0.0079, -0.1908 -0.1162 0.0394, -0.1908 -0.1162 0.0079, -0.1946 -0.1138 0.0394, -0.1946 -0.1138 0.0079, -0.1977 -0.1107 0.0394, -0.1977 -0.1107 0.0079, -0.2 -0.107 0.0394, -0.2 -0.107 0.0079, -0.2015 -0.1028 0.0394, -0.2015 -0.1028 0.0079, -0.202 -0.0984 0.0394, -0.202 -0.0984 0.0079, -0.1823 0.1102 0.0, -0.1272 0.1102 0.0, -0.1272 -0.1102 0.0, -0.1823 -0.1102 0.0, -0.1941 -0.0984 0.0, -0.1849 -0.1099 0.0, -0.1897 -0.1077 0.0, -0.1915 -0.1058 0.0, -0.1929 -0.1036 0.0, -0.1941 0.0984 0.0, -0.1938 0.1011 0.0, -0.1874 -0.1091 0.0, -0.1938 -0.1011 0.0, -0.1915 0.1058 0.0, -0.1897 0.1077 0.0, -0.1874 0.1091 0.0, -0.1929 0.1036 0.0, -0.1849 0.1099 0.0, -0.1204 -0.1142 0.0394, -0.1196 -0.1123 0.0394, -0.1232 -0.1142 0.0394, -0.1232 0.1142 0.0394, -0.1196 0.1123 0.0394, -0.1959 -0.1063 0.0394, -0.1934 -0.1096 0.0394, -0.1902 -0.1121 0.0394, -0.1864 -0.1136 0.0394, -0.1823 -0.1142 0.0394, -0.1251 -0.1178 0.0394, -0.1204 0.1142 0.0394, -0.1216 0.1158 0.0394, -0.1232 0.1171 0.0394, -0.1232 -0.1171 0.0394, -0.1216 -0.1158 0.0394, -0.1251 0.1178 0.0394, -0.1823 0.1142 0.0394, -0.1864 0.1136 0.0394, -0.1902 0.1121 0.0394, -0.1934 0.1096 0.0394, -0.1959 0.1063 0.0394, -0.1975 0.1025 0.0394, -0.198 0.0984 0.0394, -0.198 -0.0984 0.0394, -0.1975 -0.1025 0.0394
            ]
        }
        coordIndex [
            0,1,2,-1,2,1,3,-1,2,3,4,-1,4,3,5,-1,5,3,6,-1,5,6,7,-1,7,6,8,-1,8,6,9,-1,8,9,10,-1,10,9,11,-1,11,9,12,-1,11,12,13,-1,13,12,14,-1,14,12,15,-1,14,15,16,-1,16,15,17,-1,17,15,18,-1,17,18,19,-1,19,18,20,-1,20,18,21,-1,20,21,22,-1,20,22,23,-1,23,22,24,-1,23,24,25,-1,25,24,26,-1,25,26,27,-1,27,26,28,-1,27,28,29,-1,29,28,30,-1,29,30,31,-1,31,30,32,-1,31,32,33,-1,33,32,34,-1,33,34,35,-1,35,34,36,-1,36,34,37,-1,38,39,40,-1,40,39,41,-1,42,43,0,-1,0,43,1,-1,44,45,46,-1,47,48,49,-1,50,44,51,-1,51,44,46,-1,51,46,52,-1,52,46,53,-1,47,49,54,-1,55,56,57,-1,57,56,58,-1,45,59,46,-1,46,59,56,-1,46,56,60,-1,60,56,55,-1,54,49,51,-1,51,49,61,-1,51,61,50,-1,39,62,41,-1,41,62,63,-1,41,63,64,-1,64,63,65,-1,39,66,62,-1,62,66,67,-1,62,67,68,-1,62,37,69,-1,69,37,34,-1,69,34,70,-1,70,34,32,-1,70,32,71,-1,71,32,30,-1,71,30,72,-1,68,73,62,-1,62,73,74,-1,62,74,37,-1,30,28,72,-1,72,28,26,-1,72,26,75,-1,75,26,24,-1,75,24,76,-1,76,24,22,-1,76,22,77,-1,77,22,21,-1,77,21,78,-1,78,21,18,-1,78,18,79,-1,79,18,15,-1,79,15,80,-1,80,15,12,-1,80,12,81,-1,81,12,9,-1,81,9,82,-1,82,9,6,-1,82,6,83,-1,83,6,3,-1,83,3,84,-1,84,3,1,-1,84,1,63,-1,63,1,43,-1,63,43,85,-1,85,86,63,-1,63,86,87,-1,63,87,65,-1,88,89,90,-1,90,89,91,-1,90,91,92,-1,92,91,93,-1,93,91,94,-1,93,94,95,-1,95,94,96,-1,96,94,97,-1,96,97,98,-1,98,97,99,-1,99,97,100,-1,99,100,101,-1,101,100,102,-1,102,100,103,-1,102,103,104,-1,104,103,105,-1,105,103,106,-1,105,106,107,-1,107,106,108,-1,108,106,109,-1,110,111,112,-1,112,111,113,-1,114,115,116,-1,116,115,117,-1,116,117,118,-1,116,118,119,-1,119,118,120,-1,119,120,121,-1,121,120,122,-1,121,122,123,-1,123,122,124,-1,123,124,125,-1,125,124,126,-1,125,126,127,-1,127,126,128,-1,127,128,129,-1,129,128,130,-1,129,130,131,-1,131,130,88,-1,88,130,89,-1,132,133,134,-1,134,135,136,-1,136,135,137,-1,138,139,140,-1,134,136,132,-1,132,136,141,-1,132,141,142,-1,137,143,136,-1,136,143,138,-1,136,138,144,-1,144,138,140,-1,145,146,147,-1,142,148,132,-1,132,148,145,-1,132,145,149,-1,149,145,147,-1,150,151,152,-1,152,151,113,-1,152,113,153,-1,153,113,111,-1,153,111,154,-1,155,124,156,-1,156,124,122,-1,156,122,157,-1,157,122,120,-1,157,120,158,-1,158,120,118,-1,158,118,159,-1,159,118,117,-1,159,117,152,-1,152,117,115,-1,152,115,160,-1,154,161,153,-1,153,161,162,-1,153,162,163,-1,160,164,152,-1,152,164,165,-1,152,165,150,-1,163,166,153,-1,153,166,109,-1,153,109,167,-1,167,109,106,-1,167,106,168,-1,168,106,103,-1,168,103,169,-1,169,103,100,-1,169,100,170,-1,170,100,97,-1,170,97,171,-1,171,97,94,-1,171,94,172,-1,172,94,91,-1,172,91,173,-1,173,91,89,-1,173,89,174,-1,174,89,130,-1,174,130,175,-1,175,130,128,-1,175,128,155,-1,155,128,126,-1,155,126,124,-1,
        ]
    }
}
Shape{
    appearance Appearance {
        material  Material 	{
            diffuseColor 0.5098039215686274 0.25098039215686274 0.01568627450980392
            specularColor 0.03529411764705882 0.0196078431372549 0.0
            ambientIntensity 0.4303
            transparency 0.0
            shininess 0.5
        }
    }
    geometry IndexedFaceSet {
        ccw TRUE
        solid FALSE
        coord DEF co Coordinate {
            point [
                0.113 -0.0984 0.0748, 0.113 -0.0984 0.1417, -0.1232 -0.0984 0.0748, -0.1232 -0.0984 0.1417, -0.1232 0.0984 0.0748, -0.1232 0.0984 0.1417, 0.113 0.0984 0.0748, 0.113 0.0984 0.1417, 0.0153 -0.0787 0.0551, 0.113 -0.0787 0.0551, 0.113 -0.0838 0.0558, -0.1232 -0.0838 0.0558, -0.1232 -0.0787 0.0551, 0.113 -0.0886 0.0578, -0.1232 -0.0886 0.0578, 0.113 -0.0927 0.0609, -0.1232 -0.0927 0.0609, 0.113 -0.0958 0.065, -0.1232 -0.0958 0.065, 0.113 -0.0978 0.0697, -0.1232 -0.0978 0.0697, 0.0153 0.0787 0.0551, -0.1232 0.0787 0.0551, -0.1232 0.0838 0.0558, 0.113 0.0838 0.0558, 0.113 0.0787 0.0551, -0.1232 0.0886 0.0578, 0.113 0.0886 0.0578, -0.1232 0.0927 0.0609, 0.113 0.0927 0.0609, -0.1232 0.0958 0.065, 0.113 0.0958 0.065, -0.1232 0.0978 0.0697, 0.113 0.0978 0.0697
            ]
        }
        coordIndex [
            0,1,2,-1,2,1,3,-1,4,5,6,-1,6,5,7,-1,8,9,10,-1,11,12,8,-1,8,10,11,-1,11,10,13,-1,11,13,14,-1,14,13,15,-1,14,15,16,-1,16,15,17,-1,16,17,18,-1,18,17,19,-1,18,19,20,-1,20,19,0,-1,20,0,2,-1,21,22,23,-1,24,25,21,-1,21,23,24,-1,24,23,26,-1,24,26,27,-1,27,26,28,-1,27,28,29,-1,29,28,30,-1,29,30,31,-1,31,30,32,-1,31,32,33,-1,33,32,4,-1,33,4,6,-1,
        ]
    }
}
Shape{
    appearance Appearance {
        material  Material 	{
            diffuseColor 0.6666666666666666 0.6666666666666666 0.6666666666666666
            specularColor 0.4666666666666667 0.4666666666666667 0.4666666666666667
            ambientIntensity 0.6667
            transparency 0.0
            shininess 0.5
        }
    }
    geometry IndexedFaceSet {
        ccw TRUE
        solid FALSE
        coord DEF co Coordinate {
            point [
                -0.1193 -0.1102 0.0079, -0.1193 -0.1102 0.0394, -0.1196 -0.1123 0.0394, -0.1196 -0.1123 0.0079, -0.1204 -0.1142 0.0394, -0.1204 -0.1142 0.0079, -0.1216 -0.1158 0.0394, -0.1216 -0.1158 0.0079, -0.1232 -0.1171 0.0394, -0.1232 -0.1171 0.0079, -0.1251 -0.1178 0.0394, -0.1251 -0.1178 0.0079, -0.1272 -0.1181 0.0394, -0.1272 -0.1181 0.0079, -0.1272 0.1181 0.0079, -0.1272 0.1181 0.0394, -0.1251 0.1178 0.0394, -0.1251 0.1178 0.0079, -0.1232 0.1171 0.0394, -0.1232 0.1171 0.0079, -0.1216 0.1158 0.0394, -0.1216 0.1158 0.0079, -0.1204 0.1142 0.0394, -0.1204 0.1142 0.0079, -0.1196 0.1123 0.0394, -0.1196 0.1123 0.0079, -0.1193 0.1102 0.0394, -0.1193 0.1102 0.0079, 0.1169 -0.1181 0.0079, 0.1169 -0.1181 0.0394, 0.1149 -0.1178 0.0394, 0.1149 -0.1178 0.0079, 0.113 -0.1171 0.0394, 0.113 -0.1171 0.0079, 0.1113 -0.1158 0.0394, 0.1113 -0.1158 0.0079, 0.1101 -0.1142 0.0394, 0.1101 -0.1142 0.0079, 0.1093 -0.1123 0.0394, 0.1093 -0.1123 0.0079, 0.109 -0.1102 0.0394, 0.109 -0.1102 0.0079, 0.109 0.1102 0.0079, 0.109 0.1102 0.0394, 0.1093 0.1123 0.0394, 0.1093 0.1123 0.0079, 0.1101 0.1142 0.0394, 0.1101 0.1142 0.0079, 0.1113 0.1158 0.0394, 0.1113 0.1158 0.0079, 0.113 0.1171 0.0394, 0.113 0.1171 0.0079, 0.1149 0.1178 0.0394, 0.1149 0.1178 0.0079, 0.1169 0.1181 0.0394, 0.1169 0.1181 0.0079, -0.202 -0.0984 0.0079, -0.2017 -0.0984 0.0058, -0.2012 -0.1027 0.0058, -0.2009 -0.0984 0.0039, -0.2005 -0.1026 0.0039, -0.1997 -0.0984 0.0023, -0.1992 -0.1023 0.0023, -0.198 -0.0984 0.0011, -0.1976 -0.1019 0.0011, -0.1961 -0.0984 0.0003, -0.1958 -0.1015 0.0003, -0.1941 -0.0984 0.0, -0.1938 -0.1011 0.0, -0.1929 -0.1036 0.0, -0.1948 -0.1044 0.0003, -0.1915 -0.1058 0.0, -0.1931 -0.1071 0.0003, -0.1897 -0.1077 0.0, -0.1909 -0.1093 0.0003, -0.1874 -0.1091 0.0, -0.1883 -0.1109 0.0003, -0.1849 -0.1099 0.0, -0.1854 -0.1119 0.0003, -0.1823 -0.1102 0.0, -0.1823 -0.1123 0.0003, -0.1965 -0.1053 0.0011, -0.1946 -0.1082 0.0011, -0.1921 -0.1107 0.0011, -0.1891 -0.1126 0.0011, -0.1858 -0.1138 0.0011, -0.1823 -0.1142 0.0011, -0.198 -0.106 0.0023, -0.1959 -0.1093 0.0023, -0.1931 -0.112 0.0023, -0.1898 -0.1141 0.0023, -0.1862 -0.1154 0.0023, -0.1823 -0.1158 0.0023, -0.1991 -0.1065 0.0039, -0.1969 -0.11 0.0039, -0.1939 -0.113 0.0039, -0.1904 -0.1152 0.0039, -0.1864 -0.1166 0.0039, -0.1823 -0.1171 0.0039, -0.1998 -0.1069 0.0058, -0.1975 -0.1105 0.0058, -0.1944 -0.1136 0.0058, -0.1907 -0.1159 0.0058, -0.1866 -0.1174 0.0058, -0.1823 -0.1178 0.0058, -0.2015 -0.1028 0.0079, -0.2 -0.107 0.0079, -0.1977 -0.1107 0.0079, -0.1946 -0.1138 0.0079, -0.1908 -0.1162 0.0079, -0.1867 -0.1176 0.0079, -0.1823 -0.1181 0.0079, -0.1941 0.0984 0.0, -0.1961 0.0984 0.0003, -0.198 0.0984 0.0011, -0.1997 0.0984 0.0023, -0.2009 0.0984 0.0039, -0.2017 0.0984 0.0058, -0.202 0.0984 0.0079, -0.1272 -0.1102 0.0, -0.1272 -0.1123 0.0003, -0.1272 -0.1142 0.0011, -0.1272 -0.1158 0.0023, -0.1272 -0.1171 0.0039, -0.1272 -0.1178 0.0058, -0.2012 0.1035 0.0079, -0.2 0.107 0.0079, -0.1998 0.1069 0.0058, -0.1993 0.1082 0.0079, -0.1977 0.1107 0.0079, -0.1975 0.1105 0.0058, -0.1961 0.1123 0.0079, -0.1946 0.1138 0.0079, -0.1944 0.1136 0.0058, -0.1874 0.1174 0.0079, -0.1867 0.1176 0.0079, -0.1866 0.1174 0.0058, -0.1874 0.1091 0.0, -0.1897 0.1077 0.0, -0.1883 0.1109 0.0003, -0.1909 0.1093 0.0003, -0.1891 0.1126 0.0011, -0.1921 0.1107 0.0011, -0.1898 0.1141 0.0023, -0.1931 0.112 0.0023, -0.1904 0.1152 0.0039, -0.1939 0.113 0.0039, -0.1907 0.1159 0.0058, -0.1823 0.1102 0.0, -0.1849 0.1099 0.0, -0.1823 0.1123 0.0003, -0.1854 0.1119 0.0003, -0.1823 0.1142 0.0011, -0.1858 0.1138 0.0011, -0.1823 0.1158 0.0023, -0.1862 0.1154 0.0023, -0.1823 0.1171 0.0039, -0.1864 0.1166 0.0039, -0.1823 0.1178 0.0058, -0.1823 0.1181 0.0079, -0.1908 0.1162 0.0079, -0.1921 0.1154 0.0079, -0.1969 0.11 0.0039, -0.1959 0.1093 0.0023, -0.1946 0.1082 0.0011, -0.1931 0.1071 0.0003, -0.1915 0.1058 0.0, -0.1991 0.1065 0.0039, -0.198 0.106 0.0023, -0.1965 0.1053 0.0011, -0.1948 0.1044 0.0003, -0.1929 0.1036 0.0, -0.2015 0.1028 0.0079, -0.2012 0.1027 0.0058, -0.2005 0.1026 0.0039, -0.1992 0.1023 0.0023, -0.1976 0.1019 0.0011, -0.1958 0.1015 0.0003, -0.1938 0.1011 0.0, -0.1252 -0.1176 0.0058, -0.1252 -0.1136 0.0011, -0.1262 -0.112 0.0003, -0.1257 -0.1117 0.0003, -0.1251 -0.1102 0.0003, -0.1252 -0.1108 0.0003, -0.1266 -0.1122 0.0003, -0.1262 -0.114 0.0011, -0.1257 -0.1156 0.0023, -0.1244 -0.113 0.0011, -0.1254 -0.1113 0.0003, -0.1238 -0.1122 0.0011, -0.1234 -0.1113 0.0011, -0.1232 -0.1102 0.0011, -0.1244 -0.1151 0.0023, -0.1232 -0.1142 0.0023, -0.1224 -0.113 0.0023, -0.1218 -0.1117 0.0023, -0.1216 -0.1102 0.0023, -0.1254 -0.1168 0.0039, -0.1238 -0.1161 0.0039, -0.1224 -0.1151 0.0039, -0.1213 -0.1136 0.0039, -0.1206 -0.112 0.0039, -0.1204 -0.1102 0.0039, -0.1234 -0.1168 0.0058, -0.1218 -0.1156 0.0058, -0.1206 -0.114 0.0058, -0.1198 -0.1122 0.0058, -0.1196 -0.1102 0.0058, -0.1272 0.1102 0.0, -0.1272 0.1123 0.0003, -0.1272 0.1142 0.0011, -0.1272 0.1158 0.0023, -0.1272 0.1171 0.0039, -0.1272 0.1178 0.0058, -0.1251 0.1102 0.0003, -0.1232 0.1102 0.0011, -0.1216 0.1102 0.0023, -0.1204 0.1102 0.0039, -0.1196 0.1102 0.0058, -0.1198 0.1122 0.0058, -0.1238 0.1122 0.0011, -0.1254 0.1113 0.0003, -0.1257 0.1117 0.0003, -0.1266 0.1122 0.0003, -0.1252 0.1108 0.0003, -0.1234 0.1113 0.0011, -0.1218 0.1117 0.0023, -0.1244 0.113 0.0011, -0.1262 0.112 0.0003, -0.1252 0.1136 0.0011, -0.1262 0.114 0.0011, -0.1224 0.113 0.0023, -0.1232 0.1142 0.0023, -0.1244 0.1151 0.0023, -0.1257 0.1156 0.0023, -0.1206 0.112 0.0039, -0.1213 0.1136 0.0039, -0.1224 0.1151 0.0039, -0.1238 0.1161 0.0039, -0.1254 0.1168 0.0039, -0.1206 0.114 0.0058, -0.1218 0.1156 0.0058, -0.1234 0.1168 0.0058, -0.1252 0.1176 0.0058, 0.1169 0.1178 0.0058, 0.1149 0.1176 0.0058, 0.1149 0.1136 0.0011, 0.1159 0.112 0.0003, 0.1155 0.1117 0.0003, 0.1169 0.1102 0.0, 0.1149 0.1102 0.0003, 0.1149 0.1108 0.0003, 0.1164 0.1122 0.0003, 0.1159 0.114 0.0011, 0.1155 0.1156 0.0023, 0.1169 0.1123 0.0003, 0.1141 0.113 0.0011, 0.1152 0.1113 0.0003, 0.1135 0.1122 0.0011, 0.1131 0.1113 0.0011, 0.113 0.1102 0.0011, 0.1169 0.1142 0.0011, 0.1169 0.1158 0.0023, 0.1169 0.1171 0.0039, 0.1141 0.1151 0.0023, 0.113 0.1142 0.0023, 0.1121 0.113 0.0023, 0.1115 0.1117 0.0023, 0.1113 0.1102 0.0023, 0.1152 0.1168 0.0039, 0.1135 0.1161 0.0039, 0.1121 0.1151 0.0039, 0.111 0.1136 0.0039, 0.1103 0.112 0.0039, 0.1101 0.1102 0.0039, 0.1131 0.1168 0.0058, 0.1115 0.1156 0.0058, 0.1103 0.114 0.0058, 0.1096 0.1122 0.0058, 0.1093 0.1102 0.0058, 0.172 0.1102 0.0, 0.172 0.1123 0.0003, 0.172 0.1142 0.0011, 0.172 0.1158 0.0023, 0.172 0.1171 0.0039, 0.172 0.1178 0.0058, 0.172 0.1181 0.0079, 0.1169 -0.1102 0.0, 0.1149 -0.1102 0.0003, 0.113 -0.1102 0.0011, 0.1113 -0.1102 0.0023, 0.1101 -0.1102 0.0039, 0.1093 -0.1102 0.0058, 0.1771 0.1174 0.0079, 0.1806 0.1162 0.0079, 0.1805 0.1159 0.0058, 0.191 0.1035 0.0079, 0.1912 0.1028 0.0079, 0.191 0.1027 0.0058, 0.1827 0.1036 0.0, 0.1813 0.1058 0.0, 0.1845 0.1044 0.0003, 0.1829 0.1071 0.0003, 0.1862 0.1053 0.0011, 0.1843 0.1082 0.0011, 0.1877 0.106 0.0023, 0.1856 0.1093 0.0023, 0.1888 0.1065 0.0039, 0.1866 0.11 0.0039, 0.1895 0.1069 0.0058, 0.1872 0.1105 0.0058, 0.1838 0.0984 0.0, 0.1836 0.1011 0.0, 0.1859 0.0984 0.0003, 0.1855 0.1015 0.0003, 0.1878 0.0984 0.0011, 0.1874 0.1019 0.0011, 0.1894 0.0984 0.0023, 0.189 0.1023 0.0023, 0.1907 0.0984 0.0039, 0.1902 0.1026 0.0039, 0.1915 0.0984 0.0058, 0.1917 0.0984 0.0079, 0.1898 0.107 0.0079, 0.1818 0.1154 0.0079, 0.1843 0.1138 0.0079, 0.1841 0.1136 0.0058, 0.1837 0.113 0.0039, 0.1829 0.112 0.0023, 0.1819 0.1107 0.0011, 0.1807 0.1093 0.0003, 0.1794 0.1077 0.0, 0.1859 0.1123 0.0079, 0.1874 0.1107 0.0079, 0.189 0.1082 0.0079, 0.1801 0.1152 0.0039, 0.1796 0.1141 0.0023, 0.1789 0.1126 0.0011, 0.178 0.1109 0.0003, 0.1772 0.1091 0.0, 0.1764 0.1176 0.0079, 0.1764 0.1174 0.0058, 0.1762 0.1166 0.0039, 0.1759 0.1154 0.0023, 0.1755 0.1138 0.0011, 0.1751 0.1119 0.0003, 0.1747 0.1099 0.0, 0.1096 -0.1122 0.0058, 0.1135 -0.1122 0.0011, 0.1152 -0.1113 0.0003, 0.1155 -0.1117 0.0003, 0.1169 -0.1123 0.0003, 0.1164 -0.1122 0.0003, 0.1149 -0.1108 0.0003, 0.1131 -0.1113 0.0011, 0.1115 -0.1117 0.0023, 0.1141 -0.113 0.0011, 0.1159 -0.112 0.0003, 0.1149 -0.1136 0.0011, 0.1159 -0.114 0.0011, 0.1169 -0.1142 0.0011, 0.1121 -0.113 0.0023, 0.113 -0.1142 0.0023, 0.1141 -0.1151 0.0023, 0.1155 -0.1156 0.0023, 0.1169 -0.1158 0.0023, 0.1103 -0.112 0.0039, 0.111 -0.1136 0.0039, 0.1121 -0.1151 0.0039, 0.1135 -0.1161 0.0039, 0.1152 -0.1168 0.0039, 0.1169 -0.1171 0.0039, 0.1103 -0.114 0.0058, 0.1115 -0.1156 0.0058, 0.1131 -0.1168 0.0058, 0.1149 -0.1176 0.0058, 0.1169 -0.1178 0.0058, 0.1838 -0.0984 0.0, 0.1859 -0.0984 0.0003, 0.1878 -0.0984 0.0011, 0.1894 -0.0984 0.0023, 0.1907 -0.0984 0.0039, 0.1915 -0.0984 0.0058, 0.1917 -0.0984 0.0079, 0.172 -0.1102 0.0, 0.172 -0.1123 0.0003, 0.172 -0.1142 0.0011, 0.172 -0.1158 0.0023, 0.172 -0.1171 0.0039, 0.172 -0.1178 0.0058, 0.172 -0.1181 0.0079, 0.1764 -0.1174 0.0058, 0.1762 -0.1166 0.0039, 0.1759 -0.1154 0.0023, 0.1755 -0.1138 0.0011, 0.1751 -0.1119 0.0003, 0.1747 -0.1099 0.0, 0.1772 -0.1091 0.0, 0.178 -0.1109 0.0003, 0.1794 -0.1077 0.0, 0.1807 -0.1093 0.0003, 0.1813 -0.1058 0.0, 0.1829 -0.1071 0.0003, 0.1827 -0.1036 0.0, 0.1845 -0.1044 0.0003, 0.1836 -0.1011 0.0, 0.1855 -0.1015 0.0003, 0.1789 -0.1126 0.0011, 0.1819 -0.1107 0.0011, 0.1843 -0.1082 0.0011, 0.1862 -0.1053 0.0011, 0.1874 -0.1019 0.0011, 0.1796 -0.1141 0.0023, 0.1829 -0.112 0.0023, 0.1856 -0.1093 0.0023, 0.1877 -0.106 0.0023, 0.189 -0.1023 0.0023, 0.1801 -0.1152 0.0039, 0.1837 -0.113 0.0039, 0.1866 -0.11 0.0039, 0.1888 -0.1065 0.0039, 0.1902 -0.1026 0.0039, 0.1805 -0.1159 0.0058, 0.1841 -0.1136 0.0058, 0.1872 -0.1105 0.0058, 0.1895 -0.1069 0.0058, 0.191 -0.1027 0.0058, 0.1764 -0.1176 0.0079, 0.1806 -0.1162 0.0079, 0.1843 -0.1138 0.0079, 0.1874 -0.1107 0.0079, 0.1898 -0.107 0.0079, 0.1912 -0.1028 0.0079
            ]
        }
        coordIndex [
            0,1,2,-1,0,2,3,-1,3,2,4,-1,3,4,5,-1,5,4,6,-1,5,6,7,-1,7,6,8,-1,7,8,9,-1,9,8,10,-1,9,10,11,-1,11,10,12,-1,11,12,13,-1,14,15,16,-1,14,16,17,-1,17,16,18,-1,17,18,19,-1,19,18,20,-1,19,20,21,-1,21,20,22,-1,21,22,23,-1,23,22,24,-1,23,24,25,-1,25,24,26,-1,25,26,27,-1,28,29,30,-1,28,30,31,-1,31,30,32,-1,31,32,33,-1,33,32,34,-1,33,34,35,-1,35,34,36,-1,35,36,37,-1,37,36,38,-1,37,38,39,-1,39,38,40,-1,39,40,41,-1,42,43,44,-1,42,44,45,-1,45,44,46,-1,45,46,47,-1,47,46,48,-1,47,48,49,-1,49,48,50,-1,49,50,51,-1,51,50,52,-1,51,52,53,-1,53,52,54,-1,53,54,55,-1,56,57,58,-1,57,59,60,-1,59,61,62,-1,61,63,64,-1,63,65,66,-1,65,67,68,-1,65,68,66,-1,66,68,69,-1,66,69,70,-1,70,69,71,-1,70,71,72,-1,72,71,73,-1,72,73,74,-1,74,73,75,-1,74,75,76,-1,76,75,77,-1,76,77,78,-1,78,77,79,-1,78,79,80,-1,63,66,64,-1,64,66,70,-1,64,70,81,-1,81,70,72,-1,81,72,82,-1,82,72,74,-1,82,74,83,-1,83,74,76,-1,83,76,84,-1,84,76,78,-1,84,78,85,-1,85,78,80,-1,85,80,86,-1,61,64,62,-1,62,64,81,-1,62,81,87,-1,87,81,82,-1,87,82,88,-1,88,82,83,-1,88,83,89,-1,89,83,84,-1,89,84,90,-1,90,84,85,-1,90,85,91,-1,91,85,86,-1,91,86,92,-1,59,62,60,-1,60,62,87,-1,60,87,93,-1,93,87,88,-1,93,88,94,-1,94,88,89,-1,94,89,95,-1,95,89,90,-1,95,90,96,-1,96,90,91,-1,96,91,97,-1,97,91,92,-1,97,92,98,-1,57,60,58,-1,58,60,93,-1,58,93,99,-1,99,93,94,-1,99,94,100,-1,100,94,95,-1,100,95,101,-1,101,95,96,-1,101,96,102,-1,102,96,97,-1,102,97,103,-1,103,97,98,-1,103,98,104,-1,56,58,105,-1,105,58,99,-1,105,99,106,-1,106,99,100,-1,106,100,107,-1,107,100,101,-1,107,101,108,-1,108,101,102,-1,108,102,109,-1,109,102,103,-1,109,103,110,-1,110,103,104,-1,110,104,111,-1,112,67,65,-1,112,65,113,-1,113,65,63,-1,113,63,114,-1,114,63,61,-1,114,61,115,-1,115,61,59,-1,115,59,116,-1,116,59,57,-1,116,57,117,-1,117,57,56,-1,117,56,118,-1,79,119,120,-1,79,120,80,-1,80,120,121,-1,80,121,86,-1,86,121,122,-1,86,122,92,-1,92,122,123,-1,92,123,98,-1,98,123,124,-1,98,124,104,-1,104,124,13,-1,104,13,111,-1,125,126,127,-1,128,129,130,-1,131,132,133,-1,134,135,136,-1,137,138,139,-1,139,138,140,-1,139,140,141,-1,141,140,142,-1,141,142,143,-1,143,142,144,-1,143,144,145,-1,145,144,146,-1,145,146,147,-1,147,146,133,-1,148,149,150,-1,150,149,151,-1,150,151,152,-1,152,151,153,-1,152,153,154,-1,154,153,155,-1,154,155,156,-1,156,155,157,-1,156,157,158,-1,158,157,136,-1,158,136,159,-1,159,136,135,-1,160,134,147,-1,147,134,136,-1,147,136,145,-1,145,136,157,-1,145,157,143,-1,143,157,155,-1,143,155,141,-1,141,155,153,-1,141,153,139,-1,139,153,151,-1,139,151,137,-1,137,151,149,-1,133,132,147,-1,147,132,161,-1,147,161,160,-1,129,131,130,-1,130,131,133,-1,130,133,162,-1,162,133,146,-1,162,146,163,-1,163,146,144,-1,163,144,164,-1,164,144,142,-1,164,142,165,-1,165,142,140,-1,165,140,166,-1,166,140,138,-1,126,128,127,-1,127,128,130,-1,127,130,167,-1,167,130,162,-1,167,162,168,-1,168,162,163,-1,168,163,169,-1,169,163,164,-1,169,164,170,-1,170,164,165,-1,170,165,171,-1,171,165,166,-1,172,125,173,-1,173,125,127,-1,173,127,174,-1,174,127,167,-1,174,167,175,-1,175,167,168,-1,175,168,176,-1,176,168,169,-1,176,169,177,-1,177,169,170,-1,177,170,178,-1,178,170,171,-1,178,112,177,-1,177,112,113,-1,177,113,176,-1,176,113,114,-1,176,114,175,-1,175,114,115,-1,175,115,174,-1,174,115,116,-1,174,116,173,-1,173,116,117,-1,173,117,172,-1,172,117,118,-1,13,124,179,-1,180,181,182,-1,119,183,184,-1,182,181,119,-1,185,119,181,-1,185,181,186,-1,186,181,180,-1,186,180,187,-1,120,119,185,-1,188,189,190,-1,190,189,184,-1,190,184,191,-1,191,184,183,-1,191,183,192,-1,120,185,121,-1,121,185,186,-1,121,186,122,-1,122,186,187,-1,122,187,123,-1,193,188,194,-1,194,188,190,-1,194,190,195,-1,195,190,191,-1,195,191,196,-1,196,191,192,-1,196,192,197,-1,198,193,199,-1,199,193,194,-1,199,194,200,-1,200,194,195,-1,200,195,201,-1,201,195,196,-1,201,196,202,-1,202,196,197,-1,202,197,203,-1,124,198,179,-1,179,198,199,-1,179,199,204,-1,204,199,200,-1,204,200,205,-1,205,200,201,-1,205,201,206,-1,206,201,202,-1,206,202,207,-1,207,202,203,-1,207,203,208,-1,13,179,11,-1,11,179,204,-1,11,204,9,-1,9,204,205,-1,9,205,7,-1,7,205,206,-1,7,206,5,-1,5,206,207,-1,5,207,3,-1,3,207,208,-1,3,208,0,-1,189,119,184,-1,124,123,198,-1,198,123,187,-1,198,187,193,-1,193,187,180,-1,193,180,188,-1,188,180,182,-1,188,182,189,-1,189,182,119,-1,209,148,150,-1,209,150,210,-1,210,150,152,-1,210,152,211,-1,211,152,154,-1,211,154,212,-1,212,154,156,-1,212,156,213,-1,213,156,158,-1,213,158,214,-1,214,158,159,-1,214,159,14,-1,119,209,215,-1,119,215,183,-1,183,215,216,-1,183,216,192,-1,192,216,217,-1,192,217,197,-1,197,217,218,-1,197,218,203,-1,203,218,219,-1,203,219,208,-1,208,219,27,-1,208,27,0,-1,27,219,220,-1,221,222,223,-1,209,210,224,-1,223,222,209,-1,225,209,222,-1,225,222,226,-1,226,222,221,-1,226,221,227,-1,215,209,225,-1,228,229,230,-1,230,229,224,-1,230,224,231,-1,231,224,210,-1,231,210,211,-1,215,225,216,-1,216,225,226,-1,216,226,217,-1,217,226,227,-1,217,227,218,-1,232,228,233,-1,233,228,230,-1,233,230,234,-1,234,230,231,-1,234,231,235,-1,235,231,211,-1,235,211,212,-1,236,232,237,-1,237,232,233,-1,237,233,238,-1,238,233,234,-1,238,234,239,-1,239,234,235,-1,239,235,240,-1,240,235,212,-1,240,212,213,-1,219,236,220,-1,220,236,237,-1,220,237,241,-1,241,237,238,-1,241,238,242,-1,242,238,239,-1,242,239,243,-1,243,239,240,-1,243,240,244,-1,244,240,213,-1,244,213,214,-1,27,220,25,-1,25,220,241,-1,25,241,23,-1,23,241,242,-1,23,242,21,-1,21,242,243,-1,21,243,19,-1,19,243,244,-1,19,244,17,-1,17,244,214,-1,17,214,14,-1,229,209,224,-1,219,218,236,-1,236,218,227,-1,236,227,232,-1,232,227,221,-1,232,221,228,-1,228,221,223,-1,228,223,229,-1,229,223,209,-1,55,245,246,-1,247,248,249,-1,250,251,252,-1,249,248,250,-1,253,250,248,-1,253,248,254,-1,254,248,247,-1,254,247,255,-1,256,250,253,-1,257,258,259,-1,259,258,252,-1,259,252,260,-1,260,252,251,-1,260,251,261,-1,256,253,262,-1,262,253,254,-1,262,254,263,-1,263,254,255,-1,263,255,264,-1,265,257,266,-1,266,257,259,-1,266,259,267,-1,267,259,260,-1,267,260,268,-1,268,260,261,-1,268,261,269,-1,270,265,271,-1,271,265,266,-1,271,266,272,-1,272,266,267,-1,272,267,273,-1,273,267,268,-1,273,268,274,-1,274,268,269,-1,274,269,275,-1,245,270,246,-1,246,270,271,-1,246,271,276,-1,276,271,272,-1,276,272,277,-1,277,272,273,-1,277,273,278,-1,278,273,274,-1,278,274,279,-1,279,274,275,-1,279,275,280,-1,55,246,53,-1,53,246,276,-1,53,276,51,-1,51,276,277,-1,51,277,49,-1,49,277,278,-1,49,278,47,-1,47,278,279,-1,47,279,45,-1,45,279,280,-1,45,280,42,-1,258,250,252,-1,245,264,270,-1,270,264,255,-1,270,255,265,-1,265,255,247,-1,265,247,257,-1,257,247,249,-1,257,249,258,-1,258,249,250,-1,281,250,256,-1,281,256,282,-1,282,256,262,-1,282,262,283,-1,283,262,263,-1,283,263,284,-1,284,263,264,-1,284,264,285,-1,285,264,245,-1,285,245,286,-1,286,245,55,-1,286,55,287,-1,250,288,289,-1,250,289,251,-1,251,289,290,-1,251,290,261,-1,261,290,291,-1,261,291,269,-1,269,291,292,-1,269,292,275,-1,275,292,293,-1,275,293,280,-1,280,293,41,-1,280,41,42,-1,294,295,296,-1,297,298,299,-1,300,301,302,-1,302,301,303,-1,302,303,304,-1,304,303,305,-1,304,305,306,-1,306,305,307,-1,306,307,308,-1,308,307,309,-1,308,309,310,-1,310,309,311,-1,312,313,314,-1,314,313,315,-1,314,315,316,-1,316,315,317,-1,316,317,318,-1,318,317,319,-1,318,319,320,-1,320,319,321,-1,320,321,322,-1,322,321,299,-1,322,299,323,-1,323,299,298,-1,324,297,310,-1,310,297,299,-1,310,299,308,-1,308,299,321,-1,308,321,306,-1,306,321,319,-1,306,319,304,-1,304,319,317,-1,304,317,302,-1,302,317,315,-1,302,315,300,-1,300,315,313,-1,325,326,327,-1,327,326,311,-1,327,311,328,-1,328,311,309,-1,328,309,329,-1,329,309,307,-1,329,307,330,-1,330,307,305,-1,330,305,331,-1,331,305,303,-1,331,303,332,-1,332,303,301,-1,326,333,311,-1,311,333,334,-1,311,334,310,-1,310,334,335,-1,310,335,324,-1,295,325,296,-1,296,325,327,-1,296,327,336,-1,336,327,328,-1,336,328,337,-1,337,328,329,-1,337,329,338,-1,338,329,330,-1,338,330,339,-1,339,330,331,-1,339,331,340,-1,340,331,332,-1,341,294,342,-1,342,294,296,-1,342,296,343,-1,343,296,336,-1,343,336,344,-1,344,336,337,-1,344,337,345,-1,345,337,338,-1,345,338,346,-1,346,338,339,-1,346,339,347,-1,347,339,340,-1,347,281,346,-1,346,281,282,-1,346,282,345,-1,345,282,283,-1,345,283,344,-1,344,283,284,-1,344,284,343,-1,343,284,285,-1,343,285,342,-1,342,285,286,-1,342,286,341,-1,341,286,287,-1,41,293,348,-1,349,350,351,-1,288,352,353,-1,351,350,288,-1,354,288,350,-1,354,350,355,-1,355,350,349,-1,355,349,356,-1,289,288,354,-1,357,358,359,-1,359,358,353,-1,359,353,360,-1,360,353,352,-1,360,352,361,-1,289,354,290,-1,290,354,355,-1,290,355,291,-1,291,355,356,-1,291,356,292,-1,362,357,363,-1,363,357,359,-1,363,359,364,-1,364,359,360,-1,364,360,365,-1,365,360,361,-1,365,361,366,-1,367,362,368,-1,368,362,363,-1,368,363,369,-1,369,363,364,-1,369,364,370,-1,370,364,365,-1,370,365,371,-1,371,365,366,-1,371,366,372,-1,293,367,348,-1,348,367,368,-1,348,368,373,-1,373,368,369,-1,373,369,374,-1,374,369,370,-1,374,370,375,-1,375,370,371,-1,375,371,376,-1,376,371,372,-1,376,372,377,-1,41,348,39,-1,39,348,373,-1,39,373,37,-1,37,373,374,-1,37,374,35,-1,35,374,375,-1,35,375,33,-1,33,375,376,-1,33,376,31,-1,31,376,377,-1,31,377,28,-1,358,288,353,-1,293,292,367,-1,367,292,356,-1,367,356,362,-1,362,356,349,-1,362,349,357,-1,357,349,351,-1,357,351,358,-1,358,351,288,-1,378,312,314,-1,378,314,379,-1,379,314,316,-1,379,316,380,-1,380,316,318,-1,380,318,381,-1,381,318,320,-1,381,320,382,-1,382,320,322,-1,382,322,383,-1,383,322,323,-1,383,323,384,-1,288,385,386,-1,288,386,352,-1,352,386,387,-1,352,387,361,-1,361,387,388,-1,361,388,366,-1,366,388,389,-1,366,389,372,-1,372,389,390,-1,372,390,377,-1,377,390,391,-1,377,391,28,-1,391,390,392,-1,390,389,393,-1,389,388,394,-1,388,387,395,-1,387,386,396,-1,386,385,397,-1,386,397,396,-1,396,397,398,-1,396,398,399,-1,399,398,400,-1,399,400,401,-1,401,400,402,-1,401,402,403,-1,403,402,404,-1,403,404,405,-1,405,404,406,-1,405,406,407,-1,407,406,378,-1,407,378,379,-1,387,396,395,-1,395,396,399,-1,395,399,408,-1,408,399,401,-1,408,401,409,-1,409,401,403,-1,409,403,410,-1,410,403,405,-1,410,405,411,-1,411,405,407,-1,411,407,412,-1,412,407,379,-1,412,379,380,-1,388,395,394,-1,394,395,408,-1,394,408,413,-1,413,408,409,-1,413,409,414,-1,414,409,410,-1,414,410,415,-1,415,410,411,-1,415,411,416,-1,416,411,412,-1,416,412,417,-1,417,412,380,-1,417,380,381,-1,389,394,393,-1,393,394,413,-1,393,413,418,-1,418,413,414,-1,418,414,419,-1,419,414,415,-1,419,415,420,-1,420,415,416,-1,420,416,421,-1,421,416,417,-1,421,417,422,-1,422,417,381,-1,422,381,382,-1,390,393,392,-1,392,393,418,-1,392,418,423,-1,423,418,419,-1,423,419,424,-1,424,419,420,-1,424,420,425,-1,425,420,421,-1,425,421,426,-1,426,421,422,-1,426,422,427,-1,427,422,382,-1,427,382,383,-1,391,392,428,-1,428,392,423,-1,428,423,429,-1,429,423,424,-1,429,424,430,-1,430,424,425,-1,430,425,431,-1,431,425,426,-1,431,426,432,-1,432,426,427,-1,432,427,433,-1,433,427,383,-1,433,383,384,-1,
        ]
    }
}
Shape{
    appearance Appearance {
        material  Material 	{
            diffuseColor 1.0 1.0 1.0
            specularColor 0.8784313725490196 0.8784313725490196 0.8784313725490196
            ambientIntensity 1.0
            transparency 0.0
            shininess 0.5
        }
    }
    geometry IndexedFaceSet {
        ccw TRUE
        solid FALSE
        coord DEF co Coordinate {
            point [
                -0.0721 0.0217 0.063, -0.0874 -0.0177 0.063, -0.0721 0.0217 0.0551, -0.0874 -0.0177 0.0551, -0.0817 -0.0177 0.063, -0.0817 -0.0177 0.0551, -0.0777 -0.0066 0.063, -0.0777 -0.0066 0.0551, -0.0614 -0.0066 0.063, -0.0614 -0.0066 0.0551, -0.0577 -0.0177 0.063, -0.0577 -0.0177 0.0551, -0.0519 -0.0177 0.063, -0.0519 -0.0177 0.0551, -0.0668 0.0217 0.063, -0.0668 0.0217 0.0551, -0.0628 -0.0023 0.063, -0.0759 -0.0023 0.063, -0.0686 0.0141 0.063, -0.069 0.0155 0.063, -0.0693 0.0169 0.063, -0.0694 0.0169 0.063, -0.0696 0.0155 0.063, -0.07 0.0141 0.063, -0.0628 -0.0023 0.0551, -0.0759 -0.0023 0.0551, -0.0686 0.0141 0.0551, -0.069 0.0155 0.0551, -0.0693 0.0169 0.0551, -0.0694 0.0169 0.0551, -0.0696 0.0155 0.0551, -0.07 0.0141 0.0551, -0.028 -0.0177 0.063, -0.0173 -0.0177 0.063, -0.028 -0.0177 0.0551, -0.0173 -0.0177 0.0551, -0.0173 0.0217 0.063, -0.0173 0.0217 0.0551, -0.0284 0.0217 0.063, -0.0284 0.0217 0.0551, -0.049 0.0025 0.063, -0.049 0.0025 0.0551, -0.0488 0.006 0.0551, -0.0488 0.006 0.063, -0.0478 0.0099 0.0551, -0.0478 0.0099 0.063, -0.046 0.0133 0.0551, -0.046 0.0133 0.063, -0.0433 0.0164 0.0551, -0.0433 0.0164 0.063, -0.043 0.0167 0.0551, -0.043 0.0167 0.063, -0.0386 0.0195 0.0551, -0.0386 0.0195 0.063, -0.034 0.0211 0.0551, -0.034 0.0211 0.063, -0.0329 -0.0172 0.0551, -0.0329 -0.0172 0.063, -0.0375 -0.0159 0.0551, -0.0375 -0.0159 0.063, -0.0416 -0.0135 0.0551, -0.0416 -0.0135 0.063, -0.0448 -0.0104 0.0551, -0.0448 -0.0104 0.063, -0.0471 -0.0069 0.0551, -0.0471 -0.0069 0.063, -0.0485 -0.0028 0.0551, -0.0485 -0.0028 0.063, -0.0411 0.0119 0.063, -0.0392 0.0139 0.063, -0.0363 0.0158 0.063, -0.0331 0.0169 0.063, -0.0284 0.0174 0.063, -0.0226 0.0174 0.063, -0.0226 -0.0133 0.063, -0.0282 -0.0133 0.063, -0.0324 -0.013 0.063, -0.0357 -0.0119 0.063, -0.0384 -0.0103 0.063, -0.0406 -0.0081 0.063, -0.0422 -0.0054 0.063, -0.0434 -0.0017 0.063, -0.0437 0.0024 0.063, -0.0434 0.0063 0.063, -0.0425 0.0094 0.063, -0.0284 0.0174 0.0551, -0.0226 0.0174 0.0551, -0.0331 0.0169 0.0551, -0.0363 0.0158 0.0551, -0.0392 0.0139 0.0551, -0.0411 0.0119 0.0551, -0.0425 0.0094 0.0551, -0.0434 0.0063 0.0551, -0.0437 0.0024 0.0551, -0.0434 -0.0017 0.0551, -0.0422 -0.0054 0.0551, -0.0406 -0.0081 0.0551, -0.0384 -0.0103 0.0551, -0.0357 -0.0119 0.0551, -0.0324 -0.013 0.0551, -0.0282 -0.0133 0.0551, -0.0226 -0.0133 0.0551, -0.0097 -0.0133 0.063, -0.0097 -0.0177 0.063, -0.0097 -0.0133 0.0551, -0.0097 -0.0177 0.0551, 0.0115 -0.0177 0.063, 0.0115 -0.0177 0.0551, 0.0115 0.0217 0.063, 0.0115 0.0217 0.0551, -0.0087 0.0217 0.063, -0.0087 0.0217 0.0551, -0.0087 0.0174 0.063, -0.0087 0.0174 0.0551, 0.0062 0.0174 0.063, 0.0062 0.0174 0.0551, 0.0062 0.0044 0.063, 0.0062 0.0044 0.0551, -0.0077 0.0044 0.063, -0.0077 0.0044 0.0551, -0.0077 0.0001 0.063, -0.0077 0.0001 0.0551, 0.0062 0.0001 0.063, 0.0062 0.0001 0.0551, 0.0062 -0.0133 0.063, 0.0062 -0.0133 0.0551, 0.0192 -0.0113 0.063, 0.0192 -0.0156 0.063, 0.0192 -0.0113 0.0551, 0.0192 -0.0156 0.0551, 0.0233 -0.0173 0.063, 0.03 -0.0181 0.063, 0.03 -0.0181 0.0551, 0.0289 -0.0181 0.0551, 0.0289 -0.0181 0.063, 0.0273 -0.0179 0.0551, 0.0233 -0.0173 0.0551, 0.0323 -0.0179 0.0551, 0.0348 -0.0176 0.063, 0.0348 -0.0176 0.0551, 0.0387 -0.0163 0.063, 0.0387 -0.0163 0.0551, 0.0418 -0.0143 0.063, 0.0418 -0.0143 0.0551, 0.0448 -0.0112 0.063, 0.0448 -0.0112 0.0551, 0.0469 -0.0074 0.063, 0.0469 -0.0074 0.0551, 0.0481 -0.0033 0.063, 0.0481 -0.0033 0.0551, 0.0484 0.0013 0.063, 0.0484 0.0013 0.0551, 0.0284 0.0222 0.063, 0.0284 0.0222 0.0551, 0.0324 0.0219 0.0551, 0.0324 0.0219 0.063, 0.0368 0.0206 0.0551, 0.0368 0.0206 0.063, 0.0405 0.0184 0.0551, 0.0405 0.0184 0.063, 0.0441 0.015 0.0551, 0.0441 0.015 0.063, 0.0464 0.0113 0.0551, 0.0464 0.0113 0.063, 0.0479 0.0068 0.0551, 0.0479 0.0068 0.063, 0.0192 0.0206 0.063, 0.0192 0.0206 0.0551, 0.0237 0.0219 0.0551, 0.0237 0.0219 0.063, 0.0192 0.0153 0.063, 0.0192 0.0153 0.0551, 0.0284 0.0179 0.063, 0.0284 0.0179 0.0551, 0.0236 0.0172 0.0551, 0.0236 0.0172 0.063, 0.0432 0.0016 0.063, 0.0432 0.0016 0.0551, 0.043 0.0047 0.0551, 0.043 0.0047 0.063, 0.0419 0.0089 0.0551, 0.0419 0.0089 0.063, 0.0403 0.0119 0.0551, 0.0403 0.0119 0.063, 0.0379 0.0145 0.0551, 0.0379 0.0145 0.063, 0.0352 0.0164 0.0551, 0.0352 0.0164 0.063, 0.0322 0.0174 0.0551, 0.0322 0.0174 0.063, 0.0293 -0.0138 0.063, 0.0293 -0.0138 0.0551, 0.0329 -0.0134 0.0551, 0.0329 -0.0134 0.063, 0.0358 -0.0124 0.0551, 0.0358 -0.0124 0.063, 0.0382 -0.0107 0.0551, 0.0382 -0.0107 0.063, 0.0401 -0.0088 0.0551, 0.0401 -0.0088 0.063, 0.0417 -0.006 0.0551, 0.0417 -0.006 0.063, 0.0428 -0.0027 0.0551, 0.0428 -0.0027 0.063, 0.0199 -0.0117 0.0551, 0.0199 -0.0117 0.063, 0.024 -0.0132 0.0551, 0.024 -0.0132 0.063, 0.0518 -0.0133 0.063, 0.0518 -0.0177 0.063, 0.0518 -0.0133 0.0551, 0.0518 -0.0177 0.0551, 0.072 -0.0177 0.063, 0.072 -0.0177 0.0551, 0.072 0.0217 0.063, 0.072 0.0217 0.0551, 0.0667 0.0217 0.063, 0.0667 0.0217 0.0551, 0.0667 -0.0133 0.063, 0.0667 -0.0133 0.0551
            ]
        }
        coordIndex [
            0,1,2,-1,2,1,3,-1,1,4,3,-1,3,4,5,-1,4,6,5,-1,5,6,7,-1,6,8,7,-1,7,8,9,-1,8,10,9,-1,9,10,11,-1,10,12,11,-1,11,12,13,-1,12,14,13,-1,13,14,15,-1,14,0,15,-1,15,0,2,-1,16,8,17,-1,17,8,6,-1,18,14,16,-1,16,14,12,-1,16,12,8,-1,8,12,10,-1,18,19,14,-1,14,19,20,-1,14,20,0,-1,0,20,21,-1,0,21,22,-1,22,23,0,-1,0,23,17,-1,0,17,1,-1,1,17,6,-1,1,6,4,-1,16,17,24,-1,24,17,25,-1,18,16,26,-1,26,16,24,-1,18,26,27,-1,18,27,19,-1,19,27,28,-1,19,28,20,-1,21,20,29,-1,29,20,28,-1,21,29,30,-1,21,30,22,-1,22,30,31,-1,22,31,23,-1,17,23,25,-1,25,23,31,-1,32,33,34,-1,34,33,35,-1,33,36,35,-1,35,36,37,-1,36,38,37,-1,37,38,39,-1,40,41,42,-1,40,42,43,-1,43,42,44,-1,43,44,45,-1,45,44,46,-1,45,46,47,-1,47,46,48,-1,47,48,49,-1,49,48,50,-1,49,50,51,-1,51,50,52,-1,51,52,53,-1,53,52,54,-1,53,54,55,-1,55,54,39,-1,55,39,38,-1,32,34,56,-1,32,56,57,-1,57,56,58,-1,57,58,59,-1,59,58,60,-1,59,60,61,-1,61,60,62,-1,61,62,63,-1,63,62,64,-1,63,64,65,-1,65,64,66,-1,65,66,67,-1,67,66,41,-1,67,41,40,-1,45,47,68,-1,68,47,49,-1,68,49,69,-1,69,49,51,-1,69,51,70,-1,70,51,53,-1,70,53,71,-1,71,53,55,-1,71,55,72,-1,72,55,38,-1,72,38,73,-1,73,38,36,-1,73,36,74,-1,74,36,33,-1,74,33,75,-1,75,33,32,-1,75,32,76,-1,76,32,57,-1,76,57,77,-1,77,57,59,-1,77,59,78,-1,78,59,61,-1,78,61,79,-1,79,61,63,-1,79,63,80,-1,80,63,65,-1,80,65,81,-1,81,65,67,-1,81,67,82,-1,82,67,40,-1,82,40,83,-1,83,40,43,-1,83,43,84,-1,84,43,45,-1,84,45,68,-1,72,73,85,-1,85,73,86,-1,72,85,87,-1,72,87,71,-1,71,87,88,-1,71,88,70,-1,70,88,89,-1,70,89,69,-1,69,89,90,-1,69,90,68,-1,68,90,91,-1,68,91,84,-1,84,91,92,-1,84,92,83,-1,83,92,93,-1,83,93,82,-1,82,93,94,-1,82,94,81,-1,81,94,95,-1,81,95,80,-1,80,95,96,-1,80,96,79,-1,79,96,97,-1,79,97,78,-1,78,97,98,-1,78,98,77,-1,77,98,99,-1,77,99,76,-1,76,99,100,-1,76,100,75,-1,74,75,101,-1,101,75,100,-1,73,74,86,-1,86,74,101,-1,102,103,104,-1,104,103,105,-1,103,106,105,-1,105,106,107,-1,106,108,107,-1,107,108,109,-1,108,110,109,-1,109,110,111,-1,110,112,111,-1,111,112,113,-1,112,114,113,-1,113,114,115,-1,114,116,115,-1,115,116,117,-1,116,118,117,-1,117,118,119,-1,118,120,119,-1,119,120,121,-1,120,122,121,-1,121,122,123,-1,122,124,123,-1,123,124,125,-1,124,102,125,-1,125,102,104,-1,106,103,102,-1,102,124,106,-1,106,124,122,-1,106,122,108,-1,112,110,114,-1,114,110,108,-1,114,108,116,-1,116,108,122,-1,116,122,118,-1,118,122,120,-1,126,127,128,-1,128,127,129,-1,129,127,130,-1,131,132,133,-1,131,133,134,-1,134,133,135,-1,134,135,130,-1,130,135,136,-1,130,136,129,-1,132,131,137,-1,137,131,138,-1,137,138,139,-1,139,138,140,-1,139,140,141,-1,141,140,142,-1,141,142,143,-1,143,142,144,-1,143,144,145,-1,145,144,146,-1,145,146,147,-1,147,146,148,-1,147,148,149,-1,149,148,150,-1,149,150,151,-1,152,153,154,-1,152,154,155,-1,155,154,156,-1,155,156,157,-1,157,156,158,-1,157,158,159,-1,159,158,160,-1,159,160,161,-1,161,160,162,-1,161,162,163,-1,163,162,164,-1,163,164,165,-1,165,164,151,-1,165,151,150,-1,166,167,168,-1,166,168,169,-1,169,168,153,-1,169,153,152,-1,166,170,167,-1,167,170,171,-1,172,173,174,-1,172,174,175,-1,175,174,171,-1,175,171,170,-1,176,177,178,-1,176,178,179,-1,179,178,180,-1,179,180,181,-1,181,180,182,-1,181,182,183,-1,183,182,184,-1,183,184,185,-1,185,184,186,-1,185,186,187,-1,187,186,188,-1,187,188,189,-1,189,188,173,-1,189,173,172,-1,190,191,192,-1,190,192,193,-1,193,192,194,-1,193,194,195,-1,195,194,196,-1,195,196,197,-1,197,196,198,-1,197,198,199,-1,199,198,200,-1,199,200,201,-1,201,200,202,-1,201,202,203,-1,203,202,177,-1,203,177,176,-1,126,128,204,-1,126,204,205,-1,205,204,206,-1,205,206,207,-1,207,206,191,-1,207,191,190,-1,193,131,190,-1,190,131,134,-1,190,134,207,-1,207,134,130,-1,207,130,205,-1,205,130,127,-1,205,127,126,-1,170,166,175,-1,175,166,169,-1,175,169,172,-1,172,169,152,-1,172,152,189,-1,189,152,155,-1,189,155,187,-1,187,155,157,-1,187,157,185,-1,185,157,159,-1,185,159,183,-1,183,159,161,-1,183,161,181,-1,181,161,163,-1,181,163,179,-1,179,163,165,-1,179,165,176,-1,176,165,150,-1,176,150,203,-1,203,150,148,-1,203,148,201,-1,201,148,146,-1,201,146,199,-1,199,146,144,-1,199,144,197,-1,197,144,142,-1,197,142,195,-1,195,142,140,-1,195,140,193,-1,193,140,138,-1,193,138,131,-1,208,209,210,-1,210,209,211,-1,209,212,211,-1,211,212,213,-1,212,214,213,-1,213,214,215,-1,214,216,215,-1,215,216,217,-1,216,218,217,-1,217,218,219,-1,218,208,219,-1,219,208,210,-1,216,214,218,-1,218,214,212,-1,218,212,208,-1,208,212,209,-1,
        ]
    }
}
Shape{
    appearance Appearance {
        material  Material 	{
            diffuseColor 0.5098039215686274 0.25098039215686274 0.01568627450980392
            specularColor 0.03529411764705882 0.0196078431372549 0.0
            ambientIntensity 0.4303
            transparency 0.0
            shininess 0.5
        }
    }
    geometry IndexedFaceSet {
        ccw TRUE
        solid FALSE
        coord DEF co Coordinate {
            point [
                -0.0628 -0.0023 0.0551, -0.0759 -0.0023 0.0551, -0.0686 0.0141 0.0551, -0.07 0.0141 0.0551, -0.069 0.0155 0.0551, -0.0696 0.0155 0.0551, -0.0693 0.0169 0.0551, -0.0694 0.0169 0.0551, -0.0226 0.0174 0.0551, -0.0226 -0.0133 0.0551, -0.0284 0.0174 0.0551, -0.0282 -0.0133 0.0551, -0.0324 -0.013 0.0551, -0.0437 0.0024 0.0551, -0.0434 0.0063 0.0551, -0.0425 0.0094 0.0551, -0.0331 0.0169 0.0551, -0.0357 -0.0119 0.0551, -0.0384 -0.0103 0.0551, -0.0406 -0.0081 0.0551, -0.0422 -0.0054 0.0551, -0.0434 -0.0017 0.0551, -0.0411 0.0119 0.0551, -0.0392 0.0139 0.0551, -0.0363 0.0158 0.0551
            ]
        }
        coordIndex [
            0,1,2,-1,2,1,3,-1,2,3,4,-1,4,3,5,-1,4,5,6,-1,6,5,7,-1,8,9,10,-1,10,9,11,-1,10,11,12,-1,13,14,10,-1,10,14,15,-1,10,15,16,-1,12,17,10,-1,10,17,18,-1,10,18,19,-1,19,20,10,-1,10,20,21,-1,10,21,13,-1,22,23,15,-1,15,23,24,-1,15,24,16,-1,
        ]
    }
}